<?xml version="1.0" encoding="utf-8"?>
<!-- Generator: Adobe Illustrator 28.4.1, SVG Export Plug-In . SVG Version: 6.00 Build 0)  -->
<svg version="1.1" xmlns="http://www.w3.org/2000/svg" xmlns:xlink="http://www.w3.org/1999/xlink" x="0px" y="0px"
	 viewBox="0 0 50 50" style="enable-background:new 0 0 50 50;" xml:space="preserve">
<style type="text/css">
	.st0{display:none;}
	.st1{display:inline;}
</style>
<g id="Icon_3">
	<g>
		<path d="M45.66,15.4c0,0.09,0,0.15,0,0.21c0,8.84,0,17.69,0,26.53c0,0.09,0,0.17,0,0.26c0,0.08-0.03,0.12-0.12,0.12
			c-0.03,0-0.07,0-0.1,0c-13.65,0-27.3,0-40.96,0c-0.03,0-0.07,0-0.1,0c-0.07,0-0.1-0.03-0.1-0.1c0-0.03,0-0.05,0-0.08
			c0-8.86,0-17.72,0-26.58c0-0.09,0-0.17,0-0.26c0-0.06,0.03-0.09,0.09-0.09c0.04,0,0.08,0,0.11,0c13.65,0,27.3,0,40.96,0
			C45.51,15.4,45.57,15.4,45.66,15.4z M43.42,40.44c0-0.08,0.01-0.14,0.01-0.19c0-7.52,0-15.04,0-22.56c0-0.04,0-0.08,0-0.11
			c0-0.07-0.04-0.1-0.1-0.1c-0.03,0-0.05,0-0.08,0c-12.18,0-24.35,0-36.53,0c-0.03,0-0.05,0-0.08,0c-0.08,0-0.12,0.03-0.12,0.11
			c0,0.03,0,0.05,0,0.08c0,7.52,0,15.04,0,22.56c0,0.02,0,0.03,0,0.05c0,0.16,0.01,0.16,0.17,0.16c0.04,0,0.09,0,0.13,0
			c12.13,0,24.27,0,36.4,0C43.28,40.44,43.34,40.44,43.42,40.44z"/>
		<path d="M25.02,12.14c8.26,0,16.51,0,24.77,0c0.22,0,0.22,0,0.22,0.23c0,0.61,0,1.23,0,1.84c0,0.04,0,0.08,0,0.11
			c0,0.06-0.03,0.09-0.09,0.09c-0.04,0-0.08,0-0.11,0c-16.53,0-33.07,0-49.6,0c-0.02,0-0.03,0-0.05,0c-0.15,0-0.17-0.02-0.17-0.17
			c0-0.65,0-1.29,0-1.94c0-0.16,0.01-0.17,0.17-0.17c0.08,0,0.15,0,0.23,0C8.6,12.14,16.81,12.14,25.02,12.14z"/>
		<path d="M17.73,9.04c0.01-0.08,0.01-0.13,0.01-0.19c0-0.39,0-0.78,0-1.17c0-0.19,0-0.19,0.19-0.19c3.59,0,7.18,0,10.77,0
			c1.05,0,2.09,0,3.14,0c0.03,0,0.05,0,0.08,0c0.07,0,0.11,0.03,0.11,0.11c0,0.03,0,0.05,0,0.08c0,0.38,0,0.77,0,1.15
			c0,0.21,0,0.21,0.2,0.21c2.78,0,5.55,0,8.33,0c0.01,0,0.02,0,0.03,0c0.18,0,0.18,0,0.18,0.18c0,0.59,0,1.17,0,1.76
			c0,0.05,0,0.1-0.01,0.15c-0.04,0.01-0.08,0.02-0.11,0.03c-0.05,0-0.11,0-0.16,0c-10.52,0-21.03,0-31.55,0
			c-0.22,0-0.22,0-0.22-0.23c0-0.56,0-1.13,0-1.69c0-0.03,0-0.07,0-0.1c0-0.07,0.03-0.1,0.1-0.1c0.04,0,0.08,0,0.11,0
			c2.87,0,5.74,0,8.61,0C17.61,9.04,17.67,9.04,17.73,9.04z"/>
		<path d="M36.85,32.55c0.01,0.11,0,0.2,0.02,0.28c0.03,0.1,0,0.18-0.02,0.27c-0.01,0.03,0,0.07,0.02,0.09
			c0.07,0.1,0.05,0.18-0.04,0.25c0.02,0.05,0.05,0.09,0.05,0.12c-0.01,0.08-0.06,0.16-0.05,0.23c0.01,0.07,0.05,0.14,0.01,0.21
			c-0.02,0.03-0.01,0.08,0,0.11c0.03,0.09,0.06,0.17,0.01,0.27c-0.01,0.01,0,0.05,0.01,0.06c0.09,0.12,0.07,0.22-0.04,0.31
			c0.04,0.12,0.12,0.22,0.04,0.34c-0.01,0.01,0.02,0.05,0.02,0.07c0.01,0.06,0.02,0.12,0.02,0.17c0,0.08-0.04,0.12-0.12,0.12
			c-0.04,0-0.08,0-0.11,0c-8.68,0-17.37,0-26.05,0c-0.03,0-0.07,0-0.1,0c-0.08,0-0.14-0.03-0.15-0.11
			c-0.04-0.21-0.12-0.41-0.13-0.62c-0.02-0.55-0.05-1.1,0.05-1.64c0.03-0.15,0.08-0.29,0.13-0.43c0.02-0.08,0.08-0.11,0.16-0.11
			c0.02,0,0.04,0,0.07,0c8.67,0,17.34,0,26,0C36.7,32.55,36.77,32.55,36.85,32.55z"/>
		<path d="M40.14,37.03c-0.06,0.15-0.04,0.28-0.04,0.41c0,0.34,0.08,0.68,0.02,1.02c-0.01,0.08,0,0.16,0,0.24
			c0,0.12-0.01,0.14-0.14,0.15c-0.08,0.01-0.16,0.01-0.24,0.01c-3.77,0-7.55,0-11.32,0c-6.34,0-12.68,0-19.02,0
			c-0.14,0-0.28,0-0.42-0.02c-0.5-0.06-0.85-0.46-0.84-0.94C8.15,37.43,8.51,37.06,9,37c0.09-0.01,0.18-0.01,0.28-0.01
			c10.17,0,20.35,0,30.52,0C39.91,36.99,40.02,36.98,40.14,37.03z"/>
		<path d="M34.01,28.79c0,0.16,0,0.29,0,0.43c0,0.12-0.01,0.25,0,0.37c0.01,0.2,0.02,0.4,0.03,0.59c0,0.1,0,0.19,0,0.29
			c-0.01,0.14-0.02,0.28-0.02,0.42c0,0.08-0.04,0.12-0.12,0.12c-0.03,0-0.07,0-0.1,0c-7.22,0-14.44,0-21.66,0
			c-0.12,0-0.24,0-0.35-0.04c-0.09-0.03-0.17-0.1-0.23-0.17c-0.18-0.23-0.27-0.49-0.28-0.78c-0.01-0.35,0.1-0.67,0.33-0.95
			c0.16-0.18,0.34-0.28,0.59-0.28c7.21,0,14.43,0,21.64,0C33.89,28.79,33.95,28.79,34.01,28.79z"/>
		<path d="M23.59,32.18c-4.28,0-8.57,0-12.85,0c-0.1,0-0.21,0-0.31-0.01c-0.12-0.01-0.21,0.04-0.27,0.15
			c-0.04,0.08-0.07,0.16-0.11,0.24c-0.16,0.36-0.17,0.75-0.19,1.14c-0.03,0.47,0,0.93,0.07,1.39c0.02,0.17,0.07,0.33,0.12,0.49
			c0.07,0.21,0.21,0.28,0.43,0.24c0.06-0.01,0.13-0.01,0.19-0.01c8.4,0,16.79,0,25.19,0c0.3,0,0.61,0,0.91,0
			c0.16,0,0.16,0.01,0.17,0.16c0,0.04,0,0.09,0,0.13c0,0.18,0,0.19-0.19,0.19c-0.08,0-0.15,0-0.23,0c-4.39,0-8.78,0-13.16,0
			c-4.09,0-8.19,0-12.28,0c-0.28,0-0.56-0.01-0.83-0.06c-1.12-0.21-1.9-1.21-1.85-2.34c0.05-1.14,0.92-2.07,2.05-2.19
			c0.19-0.02,0.39-0.03,0.58-0.03c7.13,0,14.26,0,21.4,0c1.34,0,2.68,0,4.02,0c0.12,0,0.24,0,0.36,0.01
			c0.12,0.01,0.13,0.02,0.14,0.14c0,0.08,0,0.15,0,0.23c0,0.1-0.02,0.12-0.13,0.12c-0.02,0-0.04,0-0.07,0
			C32.36,32.18,27.98,32.18,23.59,32.18C23.59,32.18,23.59,32.18,23.59,32.18z"/>
		<path d="M40.82,36.52c0.01,0.03,0.02,0.05,0.02,0.06c0.02,0.23,0.01,0.24-0.22,0.24c-10.39,0-20.77,0-31.16,0
			c-0.16,0-0.33-0.01-0.49,0c-0.34,0.02-0.63,0.16-0.85,0.43c-0.43,0.54-0.27,1.32,0.34,1.65c0.07,0.04,0.14,0.06,0.2,0.1
			c0.1,0.06,0.21,0.08,0.32,0.08c0.68,0,1.36,0,2.03,0c9.86,0,19.71,0,29.57,0c0.07,0,0.15,0,0.24,0c0.02,0.13,0.03,0.24,0.05,0.37
			c-0.06,0.01-0.1,0.01-0.15,0.01c-9.04,0-18.08,0-27.13,0c-1.55,0-3.09,0-4.64,0c-0.45,0-0.85-0.12-1.16-0.45
			c-0.42-0.44-0.54-0.96-0.33-1.53c0.2-0.56,0.63-0.87,1.21-0.96c0.1-0.02,0.21-0.02,0.31-0.02c9.18,0,18.36,0,27.53,0
			c1.39,0,2.78,0,4.17,0C40.73,36.51,40.78,36.52,40.82,36.52z"/>
		<path d="M23.08,31.22c3.71,0,7.42,0,11.13,0c0.01,0,0.01,0,0.02,0c0.18,0,0.24,0.08,0.18,0.26c-0.01,0.03-0.06,0.06-0.09,0.07
			c-0.06,0.01-0.12,0.01-0.18,0.01c-7.26,0-14.53,0-21.79,0c-0.26,0-0.51-0.02-0.75-0.1c-0.74-0.26-1.2-0.97-1.12-1.75
			c0.08-0.77,0.69-1.38,1.47-1.47c0.15-0.02,0.29-0.02,0.44-0.02c2.95,0,5.89,0,8.84,0c4.19,0,8.39,0,12.58,0c0.16,0,0.31,0,0.47,0
			c0.13,0,0.15,0.02,0.15,0.16c0.01,0.26-0.02,0.22-0.25,0.22c-5.55,0-11.11,0-16.66,0c-1.77,0-3.55,0-5.32,0
			c-0.3,0-0.53,0.12-0.72,0.34c-0.46,0.55-0.52,1.3-0.13,1.9c0.08,0.12,0.17,0.23,0.29,0.3c0.12,0.07,0.24,0.12,0.38,0.1
			c0.05-0.01,0.11,0,0.16,0C15.8,31.22,19.44,31.22,23.08,31.22z"/>
		<path d="M22.28,27.09c0.03-0.05,0.05-0.1,0.08-0.17c-0.03-0.03-0.07-0.07-0.12-0.13c0.04-0.02,0.07-0.05,0.1-0.05
			c0.08-0.01,0.16-0.01,0.24-0.01c4.32,0,8.63,0,12.95,0c0.03,0,0.05,0,0.08,0c0.11,0.01,0.14,0.02,0.15,0.13
			c0.02,0.17,0.03,0.35,0.02,0.52c0,0.17-0.02,0.35-0.04,0.52c-0.01,0.15-0.03,0.16-0.18,0.16c-0.54,0-1.07,0-1.61,0
			c-3.79,0-7.58,0-11.37,0c-0.09,0-0.17-0.01-0.27-0.01c0.01-0.07,0-0.13,0.02-0.17c0.05-0.08,0.04-0.16,0.03-0.23
			c-0.01-0.09-0.03-0.17,0.09-0.21c-0.06-0.06-0.1-0.1-0.14-0.15c0.04-0.04,0.07-0.08,0.12-0.13C22.37,27.12,22.33,27.1,22.28,27.09
			L22.28,27.09z"/>
		<path d="M13.89,26.98c0-0.07-0.01-0.12-0.01-0.18c0-0.82,0-1.65,0-2.47c0-0.03,0-0.05,0-0.08c0-0.08,0.03-0.12,0.12-0.12
			c0.03,0,0.07,0,0.1,0c1.1,0,2.19,0,3.29,0c0.03,0,0.07,0,0.1,0c0.07,0,0.1,0.04,0.1,0.1c0,0.03,0,0.06,0,0.1c0,0.82,0,1.65,0,2.47
			c0,0.03,0,0.07,0,0.1c0,0.06-0.03,0.09-0.09,0.09c-0.03,0-0.07,0-0.1,0c-1.11,0-2.21,0-3.32,0
			C14.01,26.99,13.96,26.98,13.89,26.98z"/>
		<path d="M15.73,24.04c-0.56,0-1.12,0-1.67,0c-0.17,0-0.18-0.01-0.18-0.17c0-0.19,0-0.39,0.01-0.58c0.01-0.17,0.02-0.18,0.19-0.18
			c0.73,0,1.46,0,2.19,0c0.36,0,0.73,0,1.09,0c0.18,0,0.19,0.01,0.2,0.19c0.01,0.19,0.01,0.39,0.01,0.58c0,0.15-0.01,0.16-0.16,0.16
			c-0.53,0-1.05,0-1.58,0C15.81,24.04,15.77,24.04,15.73,24.04z"/>
		<path d="M15.75,27.08c0.54,0,1.08,0,1.62,0c0.04,0,0.08,0,0.11,0c0.06,0,0.09,0.04,0.09,0.09c-0.01,0.24-0.01,0.49-0.02,0.73
			c-0.01,0.1-0.04,0.12-0.16,0.12c-0.24,0-0.48,0-0.71,0c-0.85,0-1.7,0-2.55,0c-0.01,0-0.02,0-0.03,0c-0.17,0-0.18-0.01-0.2-0.18
			c-0.01-0.11-0.02-0.22-0.02-0.32c0-0.1,0-0.21,0-0.31c0-0.1,0.02-0.12,0.13-0.12c0.04,0,0.08,0,0.11,0
			C14.66,27.08,15.21,27.08,15.75,27.08z"/>
		<path d="M35.86,26.74c0.06-0.01,0.1-0.01,0.14-0.02c0.28,0,0.55-0.01,0.83-0.01c0.25,0,0.47,0.08,0.63,0.29
			c0.15,0.21,0.17,0.43,0.06,0.66c-0.11,0.24-0.32,0.37-0.58,0.39c-0.23,0.01-0.46,0-0.68,0c-0.1,0-0.21,0-0.31,0
			c-0.07,0-0.11-0.03-0.1-0.11c0.01-0.08,0.01-0.15,0.02-0.23c0.03-0.29,0.04-0.58-0.01-0.88C35.86,26.81,35.86,26.79,35.86,26.74z"
			/>
		<path d="M22.28,27.08c0.05,0.11-0.06,0.13-0.11,0.17c0,0.12,0.18,0.05,0.15,0.19c-0.04,0.02-0.09,0.03-0.16,0.06
			c0.05,0.04,0.08,0.08,0.12,0.12c-0.02,0.05-0.11,0.09-0.03,0.16c0.01,0,0,0.04-0.01,0.04c-0.09,0.04-0.05,0.1-0.02,0.16
			c-0.09,0.05-0.16,0.01-0.23-0.02c-0.41-0.17-0.82-0.34-1.23-0.51c-0.01-0.01-0.02-0.02-0.04-0.04c0.02-0.02,0.03-0.05,0.05-0.05
			c0.42-0.17,0.83-0.33,1.25-0.5c0.04-0.02,0.09-0.03,0.14-0.02c0.03,0,0.06,0.04,0.07,0.07c0.01,0.01-0.03,0.05-0.05,0.07
			c-0.02,0.02-0.04,0.04-0.07,0.06C22.18,27.11,22.23,27.11,22.28,27.08C22.28,27.09,22.28,27.08,22.28,27.08z"/>
	</g>
</g>
<g id="Icon_2" class="st0">
	<g class="st1">
		<path d="M49.98,38.44c-16.65,0-33.29,0-49.94,0C0.02,38.39,0.01,38.35,0,38.3C0,38.23,0,38.17,0,38.1c0-8.78,0-17.57,0-26.35
			c0-0.19,0-0.19,0.2-0.19c6.2,0,12.4,0,18.6,0c10.34,0,20.69,0,31.03,0c0.21,0,0.18,0.02,0.18,0.18c0,8.84,0,17.67,0,26.51
			C50,38.31,49.99,38.37,49.98,38.44z M48.62,36.67c0-0.06,0-0.1,0-0.15c0-7.69,0-15.38,0-23.07c0-0.1,0-0.19,0-0.29
			c0-0.11-0.01-0.12-0.12-0.12c-0.02,0-0.03,0-0.05,0c-15.65,0-31.29,0-46.94,0c-0.17,0-0.17,0-0.17,0.17c0,7.76,0,15.52,0,23.28
			c0,0.18,0,0.18,0.18,0.18c6.79,0,13.59,0,20.38,0c8.86,0,17.71,0,26.57,0C48.52,36.67,48.56,36.67,48.62,36.67z"/>
		<path d="M13.5,27.71c0.01-0.03,0.03-0.07,0.04-0.1c0.31-0.85,0.63-1.7,0.94-2.56c0.4-1.09,0.8-2.18,1.21-3.28
			c0.39-1.05,0.77-2.09,1.16-3.14c0.14-0.37,0.3-0.72,0.52-1.05c0.22-0.33,0.53-0.52,0.92-0.57c0.42-0.05,0.84-0.02,1.21,0.22
			c0.42,0.26,0.71,0.62,0.79,1.12c0.04,0.22,0.01,0.44-0.04,0.66c-0.07,0.31-0.18,0.62-0.3,0.91c-0.39,0.97-0.79,1.95-1.18,2.92
			c-0.45,1.11-0.9,2.22-1.35,3.33c-0.53,1.3-1.05,2.61-1.57,3.92c-0.16,0.4-0.34,0.79-0.59,1.14c-0.36,0.5-0.83,0.81-1.45,0.87
			c-0.37,0.04-0.74,0.02-1.1-0.09c-0.2-0.06-0.38-0.16-0.54-0.29c-0.33-0.26-0.57-0.57-0.75-0.95c-0.43-0.92-0.8-1.86-1.18-2.8
			c-0.44-1.07-0.87-2.15-1.31-3.22C8.57,23.85,8.2,22.92,7.83,22c-0.3-0.75-0.6-1.49-0.89-2.24c-0.1-0.26-0.17-0.53-0.23-0.8
			c-0.13-0.58,0.06-1.08,0.49-1.47c0.59-0.54,1.27-0.61,2-0.37c0.23,0.08,0.4,0.23,0.53,0.44c0.21,0.34,0.37,0.7,0.5,1.07
			c0.22,0.6,0.43,1.2,0.65,1.8c0.28,0.77,0.55,1.55,0.83,2.32c0.39,1.08,0.77,2.17,1.16,3.25c0.19,0.53,0.38,1.06,0.57,1.59
			c0.01,0.04,0.03,0.07,0.05,0.1C13.48,27.71,13.49,27.71,13.5,27.71z"/>
		<path d="M16.95,16.71c-3.3,0-6.6,0-9.9,0c-0.55,0-1.1-0.05-1.63-0.23c-0.2-0.06-0.38-0.15-0.54-0.28
			c-0.2-0.16-0.29-0.36-0.25-0.61c0.01-0.09,0.06-0.17,0.11-0.25c0.11-0.16,0.28-0.26,0.45-0.34c0.25-0.12,0.51-0.18,0.77-0.23
			c0.39-0.07,0.78-0.1,1.18-0.1c6.54,0,13.08,0,19.61,0c0.52,0,1.03,0.04,1.54,0.18c0.25,0.07,0.5,0.16,0.7,0.33
			c0.07,0.06,0.14,0.12,0.19,0.2c0.14,0.21,0.12,0.53-0.07,0.72c-0.15,0.15-0.32,0.25-0.52,0.32c-0.39,0.15-0.8,0.22-1.22,0.25
			c-0.24,0.02-0.49,0.03-0.73,0.03C23.4,16.71,20.17,16.71,16.95,16.71z"/>
		<path d="M16.95,32.58c3.25,0,6.5,0,9.75,0c0.53,0,1.06,0.04,1.58,0.17c0.23,0.06,0.45,0.15,0.64,0.29
			c0.07,0.05,0.14,0.11,0.2,0.18c0.21,0.22,0.19,0.6-0.05,0.81c-0.15,0.14-0.33,0.24-0.52,0.31c-0.38,0.15-0.77,0.21-1.17,0.24
			c-0.23,0.02-0.47,0.03-0.7,0.03c-6.55,0-13.09,0-19.64,0c-0.45,0-0.89-0.04-1.33-0.14c-0.23-0.05-0.46-0.13-0.67-0.25
			c-0.14-0.08-0.26-0.17-0.34-0.31c-0.13-0.23-0.1-0.54,0.11-0.74c0.16-0.16,0.36-0.26,0.57-0.34c0.27-0.1,0.54-0.16,0.82-0.18
			c0.36-0.03,0.72-0.06,1.08-0.06C10.5,32.58,13.73,32.58,16.95,32.58C16.95,32.58,16.95,32.58,16.95,32.58z"/>
		<path d="M23.77,24.61c0-1.92,0-3.84,0-5.76c0-0.28,0.02-0.56,0.09-0.84c0.18-0.66,0.7-1.06,1.38-1.07c0.41,0,0.78,0.12,1.07,0.42
			c0.21,0.21,0.32,0.46,0.39,0.74c0.05,0.24,0.07,0.49,0.07,0.74c0,1.47,0,2.93,0,4.4c0,2.37,0,4.75,0,7.12
			c0,0.25-0.02,0.5-0.07,0.75c-0.1,0.45-0.33,0.81-0.76,1.02c-0.77,0.36-1.8,0.1-2.08-0.93c-0.08-0.28-0.09-0.56-0.09-0.84
			c0-1.23,0-2.46,0-3.69C23.77,25.99,23.77,25.3,23.77,24.61z"/>
		<path d="M32.19,27.34c-0.06-0.01-0.1-0.01-0.14-0.02c-0.09,0-0.18,0-0.27-0.01c-0.14-0.01-0.19-0.08-0.16-0.22
			c0.06-0.25,0.16-0.49,0.29-0.71c0.03-0.05,0.06-0.09,0.09-0.13c0.1-0.13,0.22-0.19,0.4-0.19c1.23,0.02,2.46,0.03,3.69,0.04
			c0.29,0,0.57,0.02,0.86,0.03c0.14,0.01,0.14,0.01,0.14,0.15c0,1.32,0,2.63,0,3.95c-0.01,1.62-0.02,3.25-0.03,4.87
			c0,0.03,0,0.05,0,0.08c-0.01,0.1-0.05,0.14-0.15,0.13c-0.19-0.01-0.23-0.07-0.24-0.26c0-0.26-0.02-0.51-0.04-0.77
			c-0.15-1.79-0.31-3.59-0.46-5.38c-0.04-0.45-0.07-0.91-0.11-1.36c-0.01-0.15-0.02-0.16-0.17-0.16c-0.24,0-0.49-0.01-0.73-0.01
			c-0.15,0-0.16,0-0.16,0.16c0,0.48,0.01,0.95,0.01,1.43C35,29.75,35,30.52,35,31.3c0,0.24-0.09,0.25-0.27,0.17
			c-0.05-0.03-0.1-0.08-0.13-0.14c-0.14-0.21-0.3-0.41-0.48-0.58c-0.4-0.37-0.89-0.57-1.42-0.65c-0.17-0.02-0.33,0.01-0.49,0.05
			c-0.12,0.03-0.24,0.07-0.37,0.08c-0.08,0.01-0.17,0.01-0.25,0c-0.18-0.03-0.29-0.18-0.27-0.37c0.01-0.12,0.06-0.24,0.14-0.33
			c0.04-0.05,0.06-0.1,0.06-0.16c-0.03-0.52,0.05-1.02,0.31-1.48c0.09-0.15,0.2-0.29,0.3-0.44C32.14,27.42,32.16,27.39,32.19,27.34z
			 M34.62,30.72c0.01,0,0.02-0.01,0.03-0.01c0-0.04-0.01-0.09-0.02-0.13c-0.07-0.45-0.15-0.91-0.22-1.36
			c-0.08-0.55-0.16-1.1-0.24-1.65c-0.03-0.21-0.03-0.21-0.23-0.21c-0.16,0-0.32,0-0.48-0.01c-0.16-0.01-0.28,0.04-0.39,0.16
			c-0.43,0.44-0.77,0.93-1.05,1.47c-0.01,0.02-0.01,0.05-0.02,0.09c0.07-0.02,0.12-0.03,0.16-0.04c0.29-0.09,0.58-0.09,0.87,0
			c0.44,0.14,0.78,0.41,1.03,0.78c0.17,0.26,0.32,0.53,0.47,0.79C34.57,30.64,34.59,30.68,34.62,30.72z"/>
		<path d="M41.41,16.05c-0.05-0.01-0.07-0.02-0.1-0.02c-0.26,0.01-0.51,0-0.77,0.02c-0.51,0.04-0.86,0.31-1.05,0.77
			c-0.09,0.21-0.16,0.43-0.21,0.66c-0.12,0.56-0.17,1.12-0.19,1.69c-0.02,0.86-0.02,1.71-0.03,2.57c0,0.1-0.01,0.19,0,0.29
			c0.02,0.17-0.05,0.31-0.13,0.45c-0.04,0.07-0.09,0.07-0.12-0.01c-0.04-0.09-0.08-0.18-0.09-0.27c-0.08-0.86-0.15-1.71-0.14-2.57
			c0-0.76,0.01-1.53,0.03-2.29c0.01-0.29,0.03-0.59,0.07-0.88c0.07-0.46,0.23-0.89,0.54-1.25c0.09-0.1,0.2-0.2,0.31-0.28
			c0.08-0.06,0.18-0.1,0.27-0.11c0.36-0.04,0.72-0.1,1.09-0.1c0.98-0.01,1.96,0.01,2.94,0.02c0.23,0,0.45,0,0.68,0
			c0.05,0,0.1,0,0.14,0c0.17,0.01,0.26,0.09,0.26,0.27c0,0.28-0.09,0.53-0.28,0.74c-0.05,0.05-0.1,0.1-0.16,0.14
			c-0.06,0.04-0.08,0.09-0.08,0.16c0.03,0.53,0.05,1.06,0.07,1.59c0.04,1.05,0.07,2.1,0.11,3.15c0,0.03,0.01,0.07-0.01,0.1
			c-0.02,0.04-0.05,0.08-0.08,0.09c-0.02,0.01-0.07-0.03-0.09-0.06c-0.09-0.12-0.17-0.24-0.27-0.35c-0.43-0.47-0.93-0.83-1.53-1.05
			c-0.41-0.15-0.83-0.19-1.26-0.15c-0.13,0.01-0.26,0.03-0.39,0.05c-0.44,0.05-0.64-0.39-0.48-0.69c0.04-0.08,0.1-0.16,0.15-0.24
			c0.02-0.04,0.05-0.09,0.05-0.13c-0.03-0.35,0.02-0.68,0.1-1.02c0.1-0.43,0.28-0.83,0.56-1.18C41.38,16.12,41.39,16.09,41.41,16.05
			z M40.97,18.17c0.06-0.02,0.1-0.04,0.15-0.05c0.32-0.13,0.66-0.18,1.01-0.14c0.58,0.08,1.06,0.34,1.46,0.76
			c0.28,0.3,0.49,0.65,0.66,1.03c0.02,0.04,0.04,0.09,0.07,0.13c0.01,0,0.02-0.01,0.03-0.01c0-0.04,0.01-0.08,0.01-0.12
			c0-0.13-0.01-0.26-0.02-0.39c-0.07-0.63-0.14-1.26-0.21-1.89c-0.03-0.23-0.05-0.47-0.09-0.7c-0.03-0.16-0.08-0.32-0.13-0.48
			c-0.06-0.18-0.2-0.28-0.38-0.31c-0.06-0.01-0.12-0.02-0.18-0.02c-0.17,0.02-0.35,0.03-0.52,0.06c-0.42,0.09-0.8,0.26-1.1,0.57
			c-0.39,0.4-0.62,0.88-0.74,1.42C40.96,18.09,40.97,18.12,40.97,18.17z"/>
		<path d="M37.21,19.8c-0.02,1.58-0.04,3.17-0.06,4.75c0,0.06,0,0.11-0.01,0.17c-0.01,0.05-0.04,0.08-0.09,0.07
			c-0.03-0.01-0.06-0.04-0.08-0.07c-0.01-0.02-0.01-0.06-0.01-0.09c-0.12-1.57-0.25-3.13-0.37-4.7c-0.08-1.11-0.16-2.22-0.24-3.33
			c-0.01-0.09-0.01-0.18-0.02-0.27c-0.01-0.16-0.02-0.16-0.17-0.15c-0.19,0.01-0.37,0.03-0.56,0.04c-0.19,0.01-0.37,0.02-0.56,0.03
			c-0.11,0.01-0.12,0.02-0.12,0.13c0,1.33,0.01,2.66,0.01,3.99c0,0.05,0,0.1-0.01,0.14c-0.01,0.03-0.05,0.06-0.07,0.06
			c-0.03,0-0.06-0.03-0.08-0.06c-0.01-0.01-0.01-0.04-0.02-0.06c-0.05-0.35-0.11-0.69-0.16-1.04c-0.15-0.97-0.31-1.95-0.46-2.92
			c-0.03-0.21-0.03-0.21-0.24-0.2c-0.13,0.01-0.25,0.01-0.38,0.02c-0.07,0-0.11,0.03-0.11,0.1c-0.03,0.5-0.28,0.89-0.61,1.25
			c-0.17,0.18-0.36,0.32-0.58,0.41c-0.04,0.02-0.08,0.04-0.12,0.05c-0.18,0.07-0.3,0.2-0.37,0.38c-0.02,0.05-0.03,0.13-0.11,0.13
			c-0.08,0-0.1-0.08-0.12-0.14c-0.04-0.1-0.04-0.2-0.01-0.31c0.08-0.25,0.22-0.44,0.44-0.58c0.08-0.05,0.16-0.09,0.24-0.12
			c0.23-0.09,0.38-0.26,0.47-0.48c0.07-0.18,0.09-0.36,0.08-0.55c0-0.09-0.02-0.11-0.11-0.11c-0.15,0-0.3,0.01-0.44,0.02
			c-0.2,0.01-0.29-0.06-0.31-0.26c-0.02-0.18-0.02-0.37,0.04-0.54c0.06-0.14,0.12-0.29,0.21-0.42c0.13-0.2,0.31-0.3,0.56-0.3
			c1.46,0,2.91-0.01,4.36-0.02c0.03,0,0.06,0,0.09,0c0.1,0.01,0.13,0.05,0.13,0.14c0,1.34,0,2.68-0.01,4.02c0,0.27,0,0.54,0,0.81
			C37.22,19.8,37.21,19.8,37.21,19.8z"/>
		<path d="M40.16,27.53c-0.05,0-0.08,0-0.1,0c-0.23,0.05-0.48-0.17-0.5-0.4c-0.03-0.41,0.09-0.77,0.39-1.06
			c0.14-0.13,0.31-0.15,0.5-0.15c0.39,0.01,0.77,0.01,1.16,0c0.57-0.01,1.14-0.02,1.71-0.03c0.14,0,0.29,0,0.43,0.01
			c0.21,0.01,0.34,0.11,0.39,0.32c0.05,0.18,0.02,0.36-0.05,0.53c-0.13,0.29-0.36,0.48-0.65,0.59c-0.27,0.1-0.55,0.15-0.83,0.14
			c-0.29,0-0.58-0.01-0.87-0.03c-0.27-0.03-0.5,0.04-0.71,0.18c-0.25,0.17-0.47,0.36-0.62,0.62c-0.18,0.29-0.33,0.6-0.41,0.94
			c-0.01,0.05-0.02,0.1-0.03,0.17c0.07-0.02,0.11-0.03,0.15-0.04c0.54-0.17,1.1-0.23,1.66-0.13c0.46,0.09,0.88,0.27,1.27,0.53
			c0.46,0.3,0.88,0.64,1.26,1.04c0.48,0.5,0.84,1.07,1.12,1.7c0.03,0.06,0.04,0.12,0.06,0.19c0.01,0.05-0.01,0.11-0.07,0.13
			c-0.04,0.01-0.09-0.01-0.13-0.03c-0.03-0.01-0.05-0.05-0.07-0.08c-0.23-0.39-0.56-0.71-0.91-1c-0.94-0.76-2.03-1.06-3.23-0.91
			c-0.29,0.04-0.58,0.1-0.87,0.15c-0.15,0.03-0.3,0.06-0.45,0.06c-0.37,0.01-0.59-0.22-0.57-0.58c0.01-0.21,0.09-0.41,0.21-0.58
			c0.07-0.1,0.1-0.2,0.1-0.33c0-0.5,0.08-0.99,0.31-1.44c0.08-0.15,0.16-0.3,0.28-0.42C40.11,27.6,40.12,27.58,40.16,27.53z"/>
		<path d="M47.46,30.79c0.05,1.51,0.09,2.88,0.13,4.25c0,0.03,0,0.07,0,0.1c-0.01,0.08-0.05,0.14-0.13,0.16
			c-0.18,0.06-0.31,0.02-0.44-0.1c-0.06-0.05-0.06-0.13-0.06-0.21c-0.02-0.36-0.03-0.73-0.04-1.09c-0.03-1.08-0.05-2.15-0.09-3.23
			c-0.03-0.79-0.08-1.58-0.2-2.36c-0.06-0.41-0.16-0.81-0.25-1.21c-0.05-0.24-0.14-0.47-0.29-0.66c-0.07-0.09-0.14-0.18-0.22-0.25
			c-0.09-0.09-0.03-0.19,0.07-0.21c0.03,0,0.06-0.01,0.09-0.01c0.33-0.01,0.67-0.03,1-0.04c0.04,0,0.09,0,0.13,0.01
			c0.15,0.03,0.23,0.11,0.25,0.26c0.01,0.06,0.01,0.13,0,0.19c-0.06,0.43-0.05,0.86-0.04,1.29C47.39,28.76,47.42,29.84,47.46,30.79z
			"/>
		<path d="M46.18,14.8c0.17,0.01,0.32,0.02,0.48,0.03c0.09,0,0.14,0.05,0.15,0.13c0.01,0.08,0.02,0.16,0.01,0.23
			c-0.02,0.18-0.05,0.35-0.08,0.53c0,0.03-0.01,0.06-0.03,0.09c-0.05,0.1-0.14,0.12-0.22,0.03c-0.01-0.02-0.03-0.03-0.04-0.05
			c-0.17-0.23-0.34-0.45-0.51-0.68c-0.02-0.03-0.04-0.05-0.06-0.08c-0.1-0.15-0.07-0.2,0.1-0.22C46.06,14.8,46.13,14.8,46.18,14.8z"
			/>
		<path d="M38.32,26.16c0.32,0,0.4,0.09,0.36,0.33c-0.03,0.16-0.08,0.31-0.12,0.46c-0.01,0.04-0.03,0.07-0.05,0.1
			c-0.07,0.09-0.17,0.1-0.26,0.02c-0.02-0.02-0.04-0.05-0.06-0.08c-0.11-0.16-0.21-0.32-0.31-0.48c-0.03-0.05-0.06-0.11-0.06-0.17
			c-0.01-0.08,0.03-0.12,0.11-0.14C38.07,26.19,38.23,26.18,38.32,26.16z"/>
		<path d="M38.41,15.31c-0.01,0.14-0.02,0.24-0.03,0.34c0,0.04-0.01,0.08-0.03,0.11c-0.05,0.08-0.12,0.1-0.19,0.03
			c-0.08-0.08-0.15-0.16-0.21-0.25c-0.1-0.17-0.19-0.34-0.29-0.51c-0.05-0.09-0.04-0.12,0.07-0.14c0.15-0.02,0.29-0.03,0.44-0.03
			c0.11,0,0.18,0.05,0.2,0.17C38.4,15.13,38.4,15.24,38.41,15.31z"/>
	</g>
</g>
<g id="Icon_1" class="st0">
	<g class="st1">
		<path d="M41.24,2.02c0.01,0.07,0.03,0.14,0.03,0.21c0,4.4,0,8.79,0,13.19c0,0.13-0.04,0.23-0.13,0.32
			c-0.28,0.29-0.55,0.58-0.82,0.87c-0.02,0.02-0.05,0.04-0.07,0.06c-0.02-0.01-0.03-0.01-0.03-0.02c0,0-0.01-0.01-0.01-0.02
			c0-0.02-0.01-0.04-0.01-0.06c0-4.46,0-8.92-0.01-13.38c0-0.01,0-0.01-0.01-0.02c0-0.01-0.01-0.01-0.01-0.02
			c0,0-0.01-0.01-0.02-0.01C40.11,3.14,40.05,3.13,40,3.13c-10.68,0-21.37,0-32.04,0C7.94,3.15,7.93,3.15,7.93,3.16
			c0,0.01-0.01,0.01-0.01,0.02C7.91,3.25,7.9,3.32,7.9,3.39c0,8.82,0,17.64,0,26.47c0.06,0.01,0.1,0.03,0.15,0.03
			c0.06,0.01,0.13,0,0.19,0c6.66,0,13.33,0,19.99,0c0.07,0,0.15,0,0.26,0c-0.05,0.06-0.06,0.09-0.09,0.12
			c-0.32,0.32-0.65,0.64-0.97,0.96c-0.08,0.08-0.17,0.12-0.28,0.11c-0.04,0-0.07,0-0.11,0c-6.62,0-13.24,0-19.86,0
			c-0.1,0-0.2,0-0.32,0c0-0.11,0-0.19,0-0.27c0-1.63,0-3.27,0-4.9c0-7.9,0-15.79,0-23.69c0-0.06,0-0.13,0.01-0.19
			C18.33,2.02,29.78,2.02,41.24,2.02z"/>
		<path d="M49.33,41.01c0.01,1.89,0,3.74,0.01,5.62c-0.12,0-0.21,0-0.3,0c-8.06,0-16.11,0-24.17,0c-6.87,0-13.74,0-20.61,0
			c-0.55,0-1.08-0.09-1.56-0.36c-1.09-0.6-1.65-1.83-1.39-3.04c0.26-1.23,1.27-2.11,2.54-2.22c0.14-0.01,0.28-0.01,0.43-0.01
			c14.92,0,29.84,0,44.75,0C49.12,41.01,49.2,41.01,49.33,41.01z"/>
		<path d="M49.44,38.21c-0.13,0-0.22,0-0.31,0c-14.75,0-29.51,0-44.26,0c-0.3,0-0.6,0.01-0.89-0.01c-0.92-0.08-1.66-0.49-2.16-1.27
			c-1.13-1.72-0.07-4.03,1.97-4.31c0.2-0.03,0.41-0.04,0.62-0.04c7.42,0,14.85,0,22.27,0c0.08,0,0.15,0,0.25,0
			c-0.03,0.07-0.04,0.12-0.06,0.16c-0.17,0.33-0.34,0.66-0.5,0.99c-0.16,0.33-0.32,0.66-0.48,0.99c-0.07,0.14-0.06,0.29-0.04,0.44
			c0.01,0.09,0.08,0.15,0.17,0.16c0.11,0.01,0.23,0.03,0.32-0.01c0.22-0.09,0.43-0.22,0.64-0.33c0.04-0.02,0.07-0.07,0.12-0.09
			c0.53-0.19,1.02-0.46,1.51-0.73c0.42-0.23,0.84-0.45,1.26-0.68c0.1-0.06,0.2-0.13,0.29-0.21c0.19-0.17,0.37-0.35,0.54-0.54
			c0.11-0.11,0.22-0.15,0.38-0.15c1.88,0,3.76,0,5.65,0c4.15,0,8.3,0,12.45,0c0.24,0,0.29-0.07,0.29,0.29c-0.01,1.28,0,2.57,0,3.85
			c0,0.4,0,0.81,0.01,1.21C49.44,38.02,49.44,38.1,49.44,38.21z"/>
		<path d="M49.85,39.98c0,0.23,0,0.43,0,0.66c-0.09,0.01-0.17,0.01-0.25,0.01c-2.57,0-5.14,0-7.72,0c-12.54,0-25.08,0-37.62,0
			c-0.36,0-0.71,0.01-1.06,0.09c-1.55,0.37-2.6,1.81-2.46,3.39c0.14,1.6,1.41,2.84,3.01,2.93c0.21,0.01,0.41,0.01,0.62,0.01
			c15.06,0,30.12,0,45.19,0c0.09,0,0.18,0,0.29,0c0,0.3,0,0.57,0,0.87c-0.1,0.01-0.2,0.02-0.31,0.02c-0.7,0-1.41,0-2.11,0
			c-14.34,0-28.67,0-43.01,0c-0.53,0-1.05-0.01-1.56-0.17c-1.53-0.49-2.51-1.52-2.79-3.09c-0.37-2.15,0.78-3.82,2.53-4.48
			c0.36-0.14,0.74-0.22,1.12-0.24c0.23-0.01,0.47-0.02,0.7-0.02c14.8,0,29.6,0,44.4,0c0.23,0,0.45-0.01,0.68,0
			C49.61,39.97,49.72,39.98,49.85,39.98z"/>
		<path d="M27.47,31.55c-0.12,0.23-0.22,0.42-0.32,0.6c-0.02,0.04-0.09,0.07-0.14,0.08c-0.06,0.01-0.13,0-0.19,0
			c-7.44,0-14.88,0-22.32,0c-0.37,0-0.74,0-1.1,0.07c-1.54,0.31-2.63,1.69-2.57,3.26c0.06,1.58,1.26,2.88,2.83,3.06
			c0.26,0.03,0.52,0.03,0.79,0.03c8.06,0,16.11,0,24.17,0c7.03,0,14.05,0,21.08,0c0.04,0,0.07,0,0.11,0
			c0.16,0.01,0.19,0.03,0.19,0.19c0,0.17,0,0.34,0,0.51c0,0.14-0.03,0.18-0.17,0.19c-0.1,0.01-0.2,0.01-0.3,0.01
			c-8.84,0-17.68,0-26.51,0c-6.15,0-12.29,0-18.44,0c-0.47,0-0.94,0.01-1.4-0.11c-1.48-0.38-2.49-1.29-2.92-2.76
			c-0.43-1.47-0.09-2.8,0.97-3.92c0.74-0.78,1.67-1.16,2.74-1.2c0.47-0.02,0.94-0.01,1.41-0.01c7.28,0,14.55,0,21.83,0
			C27.27,31.55,27.35,31.55,27.47,31.55z"/>
		<path d="M28.42,11.44c-0.04-0.01-0.06-0.02-0.09-0.02c-0.43,0.01-0.87,0-1.3,0.03c-0.87,0.05-1.47,0.51-1.83,1.29
			c-0.16,0.34-0.26,0.69-0.34,1.05c-0.22,1.07-0.31,2.15-0.33,3.24c-0.02,1.45-0.03,2.9-0.04,4.34c0,0.09-0.01,0.17-0.01,0.26
			c0,0.13-0.02,0.25-0.11,0.36c-0.04,0.05-0.05,0.12-0.08,0.17c-0.03,0.05-0.07,0.1-0.12,0.17c-0.15-0.19-0.23-0.38-0.25-0.58
			c-0.04-0.3-0.06-0.59-0.08-0.89c-0.05-0.73-0.09-1.46-0.13-2.19c-0.01-0.15-0.02-0.3-0.02-0.45c-0.01-1.87-0.05-3.73,0.1-5.6
			c0.05-0.65,0.21-1.27,0.49-1.86c0.17-0.36,0.4-0.67,0.68-0.95c0.28-0.28,0.61-0.45,1.02-0.45c0.06,0,0.11,0,0.17-0.02
			c0.62-0.13,1.24-0.15,1.87-0.14c1.46,0.01,2.93,0.04,4.39,0.05c0.4,0,0.81,0,1.21,0c0.07,0,0.14,0,0.21,0
			c0.3,0.01,0.45,0.16,0.44,0.46c-0.01,0.46-0.15,0.88-0.47,1.23c-0.08,0.08-0.16,0.17-0.26,0.22c-0.11,0.06-0.14,0.14-0.13,0.26
			c0.04,0.84,0.09,1.67,0.12,2.51c0.06,1.48,0.11,2.97,0.17,4.45c0.01,0.33,0.01,0.67,0.02,1c0,0.06,0,0.13-0.02,0.19
			c-0.03,0.05-0.08,0.1-0.14,0.11c-0.04,0.01-0.1-0.04-0.13-0.08c-0.07-0.09-0.12-0.2-0.19-0.28c-0.84-1.04-1.88-1.8-3.17-2.2
			c-0.61-0.19-1.25-0.2-1.88-0.12c-0.18,0.02-0.35,0.04-0.53,0.06c-0.74,0.08-1.05-0.65-0.8-1.15c0.08-0.15,0.18-0.29,0.28-0.43
			c0.06-0.08,0.1-0.15,0.06-0.25c-0.02-0.05-0.02-0.11-0.02-0.17c0.01-0.85,0.17-1.68,0.52-2.46c0.16-0.37,0.37-0.7,0.62-1.01
			c0.02-0.03,0.05-0.05,0.06-0.08C28.41,11.49,28.41,11.47,28.42,11.44z M33.26,17.95c0.02,0,0.03-0.01,0.05-0.01
			c0-0.07,0.01-0.13,0.01-0.2c-0.01-0.25-0.01-0.5-0.04-0.74c-0.15-1.33-0.3-2.67-0.45-4c-0.03-0.27-0.09-0.53-0.16-0.79
			c-0.19-0.67-0.47-0.87-1.16-0.85c-0.63,0.03-1.23,0.2-1.8,0.49c-0.32,0.16-0.61,0.37-0.85,0.63c-0.63,0.67-1.01,1.47-1.2,2.36
			c-0.01,0.05,0,0.1,0,0.18c0.07-0.03,0.12-0.04,0.17-0.07c0.64-0.28,1.29-0.36,1.98-0.23c0.8,0.15,1.48,0.52,2.06,1.08
			c0.57,0.55,0.96,1.22,1.29,1.94C33.2,17.82,33.23,17.89,33.26,17.95z"/>
		<path d="M17.56,11.81c-0.01,0.07-0.01,0.11-0.01,0.15c0.01,1.68,0.02,3.35,0.03,5.03c0,0.57,0,1.14-0.01,1.7
			c0,0.07,0,0.15-0.02,0.21c-0.02,0.05-0.08,0.11-0.13,0.12c-0.04,0-0.09-0.06-0.13-0.11c-0.02-0.02-0.01-0.05-0.02-0.08
			c-0.11-0.72-0.22-1.43-0.34-2.15c-0.24-1.52-0.48-3.03-0.72-4.55c-0.06-0.38-0.03-0.34-0.41-0.34c-0.28,0-0.55,0.01-0.84,0.02
			c-0.01,0.06-0.03,0.11-0.03,0.15c-0.14,1.32-0.76,2.31-1.99,2.88c-0.14,0.07-0.28,0.13-0.41,0.22c-0.18,0.12-0.28,0.32-0.36,0.52
			c-0.03,0.08-0.05,0.18-0.15,0.18c-0.11,0-0.15-0.09-0.19-0.18c-0.1-0.21-0.1-0.43-0.02-0.64c0.15-0.39,0.39-0.71,0.75-0.92
			c0.12-0.07,0.24-0.13,0.36-0.18c0.48-0.19,0.74-0.56,0.87-1.04c0.07-0.26,0.08-0.53,0.06-0.8c-0.01-0.16-0.03-0.18-0.2-0.17
			c-0.33,0-0.65,0.01-0.98,0.02c-0.26,0-0.33-0.04-0.33-0.3c0.01-0.59,0.1-1.16,0.46-1.65c0.23-0.31,0.54-0.46,0.94-0.46
			c2.01-0.01,4.02-0.02,6.03-0.04c0.43,0,0.85,0,1.28,0c0.06,0,0.13,0,0.19,0.01c0.12,0.02,0.17,0.08,0.17,0.21
			c0.06,5.35-0.08,10.71-0.13,16.06c0,0.09,0,0.18-0.02,0.28c-0.01,0.07-0.06,0.13-0.15,0.13c-0.09,0-0.13-0.06-0.14-0.13
			c-0.01-0.04-0.01-0.08-0.01-0.13c-0.3-3.94-0.6-7.89-0.9-11.83c-0.05-0.67-0.1-1.35-0.15-2.02c-0.02-0.23-0.02-0.24-0.26-0.23
			c-0.64,0.02-1.28,0.03-1.92,0.05C17.68,11.79,17.63,11.8,17.56,11.81z"/>
		<path d="M41.27,31.07c-2.72,0-5.41,0-8.13,0c0.03-0.05,0.05-0.09,0.08-0.13c0.25-0.29,0.51-0.57,0.75-0.87
			c0.11-0.13,0.22-0.19,0.4-0.19c1.85,0.01,3.69,0,5.54,0c0.09,0,0.18,0,0.3,0c0-0.11,0-0.19,0-0.28c0-1.75,0-3.51,0-5.26
			c0-0.16,0.05-0.28,0.16-0.39c0.25-0.25,0.48-0.53,0.71-0.79c0.05-0.05,0.09-0.11,0.13-0.15c0.02,0,0.03,0.01,0.03,0.01
			c0.01,0,0.02,0.01,0.02,0.01c0,0.04,0.01,0.08,0.01,0.13C41.27,25.79,41.27,28.41,41.27,31.07z"/>
		<path d="M31.22,32.23c0.23-0.24,0.42-0.44,0.62-0.63c0.03-0.03,0.09-0.05,0.13-0.05c0.06-0.01,0.11,0,0.17,0
			c5.61,0,11.23,0,16.84,0c0.26,0,0.53,0,0.79,0c0.21,0,0.23,0.03,0.24,0.23c0,0.08,0,0.16,0,0.23c0,0.2-0.02,0.21-0.22,0.22
			c-0.03,0-0.06,0-0.09,0c-6.07,0-12.15,0-18.22,0C31.4,32.23,31.33,32.23,31.22,32.23z"/>
		<path d="M45.85,17.15c-0.35-0.72-0.75-1.38-1.51-1.75c0.04-0.04,0.06-0.08,0.09-0.1c0.58-0.58,1.17-1.16,1.75-1.74
			c0.11-0.11,0.2-0.12,0.32-0.03c0.38,0.31,0.73,0.66,1.04,1.04c0.09,0.11,0.19,0.22,0.27,0.33c0.11,0.16,0.1,0.23-0.01,0.38
			c-0.04,0.06-0.09,0.11-0.14,0.16c-0.57,0.55-1.13,1.1-1.7,1.64C45.92,17.1,45.89,17.12,45.85,17.15z"/>
		<path d="M28.14,31.02c0.12,0,0.19,0,0.28,0c0,0.07,0,0.12,0,0.21c0.05,0,0.11,0.01,0.16,0.01c0.06,0,0.11-0.01,0.19-0.02
			c-0.02,0.07-0.03,0.13-0.04,0.18c0.09,0.1,0.19-0.04,0.29,0.03c-0.02,0.06-0.03,0.12-0.06,0.22c0.1-0.01,0.17-0.02,0.26-0.03
			c-0.01,0.06-0.02,0.12-0.04,0.19c0.09,0,0.16,0,0.26,0c-0.03,0.08-0.06,0.15-0.08,0.2c0.07,0.11,0.16,0.02,0.25,0.05
			c-0.02,0.06-0.03,0.1-0.05,0.17c0.07,0.01,0.13,0.02,0.2,0.03c-0.02,0.05-0.04,0.1-0.07,0.16c0.07,0.02,0.13,0.04,0.2,0.07
			c-0.02,0.05-0.04,0.09-0.06,0.16c0.06,0.02,0.12,0.04,0.19,0.07c-0.01,0.04-0.03,0.08-0.03,0.12c0.01,0.2-0.12,0.29-0.27,0.37
			c-0.84,0.44-1.67,0.88-2.51,1.31c-0.28,0.15-0.29,0.14-0.51-0.08c-0.02-0.01-0.03-0.03-0.05-0.04c-0.2-0.2-0.2-0.21-0.07-0.46
			c0.41-0.79,0.81-1.58,1.23-2.36C27.91,31.38,28.03,31.2,28.14,31.02z"/>
		<path d="M44.66,15.84c0.07,0.06,0.12,0.11,0.19,0.18c-5.29,5.1-10.56,10.18-15.84,15.27c-0.06-0.11-0.1-0.18-0.16-0.28
			C34.1,25.97,39.38,20.91,44.66,15.84z"/>
		<path d="M45.17,16.41c-0.12-0.01-0.18,0.07-0.25,0.14c-0.87,0.83-1.73,1.66-2.6,2.49c-4,3.84-7.99,7.67-11.99,11.51
			c-0.27,0.26-0.53,0.51-0.8,0.77c-0.09,0.09-0.18,0.15-0.33,0.14c-0.01-0.14,0.05-0.25,0.16-0.34c5.14-4.95,10.27-9.9,15.4-14.84
			c0.05-0.05,0.1-0.09,0.18-0.16C45.03,16.22,45.1,16.32,45.17,16.41L45.17,16.41z"/>
		<path d="M45.17,16.41c0.05,0.06,0.09,0.12,0.16,0.19c-5.21,5.05-10.41,10.09-15.6,15.11c-0.11-0.03-0.19-0.06-0.31-0.09
			c0.08-0.08,0.15-0.15,0.22-0.23c1.66-1.6,3.33-3.2,4.99-4.79c3.46-3.32,6.91-6.64,10.37-9.96C45.07,16.58,45.12,16.49,45.17,16.41
			C45.17,16.41,45.17,16.41,45.17,16.41z"/>
		<path d="M45.43,16.77c0,0.04,0,0.08-0.02,0.11c-0.04,0.05-0.09,0.09-0.13,0.14c-5.05,4.97-10.1,9.95-15.15,14.92
			c-0.08,0.08-0.14,0.19-0.28,0.17c-0.02-0.08-0.03-0.16-0.06-0.27c5.18-5.02,10.38-10.05,15.58-15.09
			C45.39,16.75,45.41,16.76,45.43,16.77z"/>
		<path d="M30.18,32.81c-0.06-0.27,0.12-0.39,0.26-0.53c5.02-4.96,10.04-9.91,15.05-14.87c0.04-0.04,0.08-0.08,0.13-0.12
			c0.07,0.05,0.09,0.1,0.04,0.16c-0.04,0.06-0.1,0.1-0.15,0.15c-4.32,4.28-8.63,8.57-12.95,12.85c-0.77,0.76-1.54,1.52-2.3,2.28
			C30.24,32.76,30.21,32.78,30.18,32.81z"/>
		<path d="M45.5,16.98c0.1,0.14,0.1,0.14-0.01,0.25c-0.63,0.62-1.26,1.25-1.89,1.87c-4.44,4.39-8.88,8.77-13.32,13.16
			c-0.04,0.04-0.07,0.09-0.1,0.14c-0.08-0.03-0.14-0.05-0.2-0.07c0-0.02,0-0.04,0-0.05c0.07-0.07,0.13-0.15,0.2-0.22
			c5.06-4.99,10.13-9.98,15.2-14.97C45.41,17.06,45.45,17.03,45.5,16.98z"/>
		<path d="M44.53,15.79c-5.3,5.08-10.59,10.16-15.89,15.24c-0.05-0.16,0.02-0.25,0.12-0.34c1.37-1.3,2.73-2.61,4.09-3.92
			c3.79-3.63,7.58-7.26,11.36-10.89c0.05-0.05,0.1-0.1,0.16-0.15C44.43,15.69,44.48,15.7,44.53,15.79z"/>
		<path d="M44.27,15.64c-5.3,5.08-10.59,10.16-15.88,15.23c-0.01-0.01-0.02-0.02-0.04-0.03c0.03-0.03,0.05-0.07,0.08-0.1
			c0.54-0.53,1.08-1.05,1.61-1.58c0.85-0.83,1.71-1.66,2.56-2.5c1.3-1.27,2.6-2.54,3.91-3.8c2.27-2.19,4.54-4.38,6.81-6.57
			c0.24-0.23,0.48-0.44,0.73-0.66C44.12,15.59,44.18,15.54,44.27,15.64z"/>
		<path d="M35.74,9.47c0.14-0.04,0.22-0.08,0.31-0.08c0.24-0.01,0.48,0,0.72,0c0.13,0,0.25,0.01,0.38,0.02
			c0.17,0.01,0.25,0.06,0.28,0.23c0.02,0.12,0.04,0.24,0.02,0.36c-0.03,0.3-0.09,0.6-0.13,0.9c0,0.03-0.01,0.06-0.02,0.08
			c-0.03,0.1-0.07,0.19-0.18,0.21c-0.13,0.02-0.19-0.07-0.26-0.15c-0.29-0.4-0.59-0.79-0.89-1.19C35.9,9.74,35.84,9.62,35.74,9.47z"
			/>
		<path d="M22.07,9.59c0.14-0.08,0.29-0.09,0.43-0.1c0.15-0.02,0.31-0.02,0.47-0.02c0.2,0,0.31,0.08,0.36,0.26
			c0.03,0.1,0.05,0.21,0.05,0.31c0,0.25-0.02,0.5-0.04,0.74c0,0.06-0.02,0.11-0.04,0.16c-0.07,0.16-0.23,0.19-0.34,0.06
			c-0.14-0.15-0.27-0.31-0.37-0.49c-0.15-0.25-0.29-0.51-0.43-0.76C22.12,9.71,22.1,9.65,22.07,9.59z"/>
		<path d="M26.41,34.34c0.13,0.14,0.24,0.26,0.37,0.4c-0.22,0.14-0.44,0.23-0.67,0.34C26.1,34.91,26.23,34.61,26.41,34.34z"/>
	</g>
</g>
</svg>
