<?xml version="1.0" encoding="utf-8"?>
<!-- Generator: Adobe Illustrator 28.4.1, SVG Export Plug-In . SVG Version: 6.00 Build 0)  -->
<svg version="1.1" xmlns="http://www.w3.org/2000/svg" xmlns:xlink="http://www.w3.org/1999/xlink" x="0px" y="0px"
	 viewBox="0 0 30 30" style="enable-background:new 0 0 30 30;" xml:space="preserve">
<style type="text/css">
	.st0{display:none;}
	.st1{display:inline;}
</style>
<g id="Icon_3">
	<g>
		<path d="M27.39,9.24c0,0.05,0,0.09,0,0.12c0,5.3,0,10.61,0,15.91c0,0.05,0,0.1,0,0.16c0,0.05-0.02,0.07-0.07,0.07
			c-0.02,0-0.04,0-0.06,0c-8.19,0-16.38,0-24.57,0c-0.02,0-0.04,0-0.06,0c-0.04,0-0.06-0.02-0.06-0.06c0-0.02,0-0.03,0-0.05
			c0-5.31,0-10.63,0-15.94c0-0.05,0-0.1,0-0.16c0-0.04,0.02-0.05,0.05-0.06c0.02,0,0.05,0,0.07,0c8.19,0,16.38,0,24.57,0
			C27.3,9.24,27.34,9.24,27.39,9.24z M26.05,24.26c0-0.05,0.01-0.08,0.01-0.12c0-4.51,0-9.02,0-13.53c0-0.02,0-0.05,0-0.07
			c0-0.04-0.02-0.06-0.06-0.06c-0.02,0-0.03,0-0.05,0c-7.3,0-14.61,0-21.91,0c-0.02,0-0.03,0-0.05,0c-0.05,0-0.07,0.02-0.07,0.07
			c0,0.02,0,0.03,0,0.05c0,4.51,0,9.02,0,13.53c0,0.01,0,0.02,0,0.03c0,0.09,0,0.1,0.1,0.1c0.03,0,0.05,0,0.08,0
			c7.28,0,14.56,0,21.83,0C25.96,24.26,26,24.26,26.05,24.26z"/>
		<path d="M15.01,7.29c4.95,0,9.9,0,14.85,0c0.13,0,0.13,0,0.13,0.14c0,0.37,0,0.73,0,1.1c0,0.02,0,0.05,0,0.07
			c0,0.04-0.02,0.05-0.05,0.06c-0.02,0-0.05,0-0.07,0c-9.92,0-19.83,0-29.75,0c-0.01,0-0.02,0-0.03,0C0.01,8.65,0,8.64,0,8.55
			c0-0.39,0-0.77,0-1.16c0-0.09,0.01-0.1,0.1-0.1c0.05,0,0.09,0,0.14,0C5.16,7.29,10.09,7.29,15.01,7.29z"/>
		<path d="M10.64,5.43c0-0.05,0.01-0.08,0.01-0.11c0-0.23,0-0.47,0-0.7c0-0.11,0-0.11,0.11-0.11c2.15,0,4.31,0,6.46,0
			c0.63,0,1.26,0,1.88,0c0.02,0,0.03,0,0.05,0c0.04,0,0.07,0.02,0.07,0.06c0,0.02,0,0.03,0,0.05c0,0.23,0,0.46,0,0.69
			c0,0.13,0,0.13,0.12,0.13c1.67,0,3.33,0,5,0c0.01,0,0.01,0,0.02,0c0.11,0,0.11,0,0.11,0.11c0,0.35,0,0.7,0,1.05
			c0,0.03,0,0.06,0,0.09c-0.02,0.01-0.05,0.01-0.07,0.02c-0.03,0-0.07,0-0.1,0c-6.31,0-12.61,0-18.92,0c-0.13,0-0.13,0-0.13-0.13
			c0-0.34,0-0.68,0-1.01c0-0.02,0-0.04,0-0.06c0-0.04,0.02-0.06,0.06-0.06c0.02,0,0.05,0,0.07,0c1.72,0,3.44,0,5.16,0
			C10.57,5.43,10.6,5.43,10.64,5.43z"/>
		<path d="M22.11,19.53c0,0.07,0,0.12,0.01,0.17c0.02,0.06,0,0.11-0.01,0.16c0,0.02,0,0.04,0.01,0.05c0.04,0.06,0.03,0.11-0.02,0.15
			c0.01,0.03,0.03,0.05,0.03,0.07c-0.01,0.05-0.04,0.09-0.03,0.14c0,0.04,0.03,0.08,0.01,0.13c-0.01,0.02-0.01,0.05,0,0.07
			c0.02,0.05,0.04,0.1,0.01,0.16c0,0.01,0,0.03,0,0.04c0.06,0.07,0.04,0.13-0.02,0.19c0.02,0.07,0.07,0.13,0.03,0.21
			c-0.01,0.01,0.01,0.03,0.01,0.04c0.01,0.03,0.01,0.07,0.01,0.1c0,0.05-0.03,0.07-0.07,0.07c-0.02,0-0.05,0-0.07,0
			c-5.21,0-10.42,0-15.63,0c-0.02,0-0.04,0-0.06,0c-0.05,0-0.08-0.02-0.09-0.07c-0.03-0.12-0.07-0.25-0.08-0.37
			c-0.01-0.33-0.03-0.66,0.03-0.98c0.02-0.09,0.05-0.17,0.08-0.26c0.01-0.05,0.05-0.07,0.1-0.06c0.01,0,0.03,0,0.04,0
			c5.2,0,10.4,0,15.6,0C22.02,19.53,22.06,19.53,22.11,19.53z"/>
		<path d="M24.08,22.22c-0.04,0.09-0.02,0.17-0.02,0.25c0,0.2,0.05,0.41,0.01,0.61c-0.01,0.05,0,0.1,0,0.15
			c0,0.07-0.01,0.08-0.08,0.09c-0.05,0-0.1,0-0.15,0c-2.26,0-4.53,0-6.79,0c-3.8,0-7.61,0-11.41,0c-0.08,0-0.17,0-0.25-0.01
			c-0.3-0.04-0.51-0.27-0.5-0.56c0.01-0.28,0.22-0.51,0.52-0.54c0.05-0.01,0.11-0.01,0.17-0.01c6.1,0,12.21,0,18.31,0
			C23.94,22.19,24.01,22.18,24.08,22.22z"/>
		<path d="M20.41,17.27c0,0.1,0,0.18,0,0.26c0,0.07,0,0.15,0,0.22c0,0.12,0.01,0.24,0.02,0.36c0,0.06,0,0.12,0,0.17
			c0,0.08-0.01,0.17-0.01,0.25c0,0.05-0.02,0.07-0.07,0.07c-0.02,0-0.04,0-0.06,0c-4.33,0-8.66,0-12.99,0c-0.07,0-0.15,0-0.21-0.02
			c-0.05-0.02-0.1-0.06-0.14-0.1c-0.11-0.14-0.16-0.3-0.17-0.47c0-0.21,0.06-0.4,0.2-0.57c0.09-0.11,0.21-0.17,0.36-0.17
			c4.33,0,8.65,0,12.98,0C20.33,17.27,20.37,17.27,20.41,17.27z"/>
		<path d="M14.15,19.31c-2.57,0-5.14,0-7.71,0c-0.06,0-0.12,0-0.19,0c-0.07,0-0.13,0.02-0.16,0.09c-0.02,0.05-0.04,0.09-0.06,0.14
			c-0.1,0.22-0.1,0.45-0.11,0.68c-0.02,0.28,0,0.56,0.04,0.84c0.01,0.1,0.04,0.2,0.07,0.29c0.04,0.13,0.12,0.17,0.26,0.15
			c0.04-0.01,0.08-0.01,0.12-0.01c5.04,0,10.07,0,15.11,0c0.18,0,0.36,0,0.55,0c0.09,0,0.1,0,0.1,0.1c0,0.03,0,0.05,0,0.08
			c0,0.11,0,0.11-0.11,0.12c-0.05,0-0.09,0-0.14,0c-2.63,0-5.26,0-7.9,0c-2.46,0-4.91,0-7.37,0c-0.17,0-0.33-0.01-0.49-0.04
			c-0.67-0.12-1.14-0.72-1.11-1.4c0.03-0.68,0.55-1.24,1.23-1.31c0.12-0.01,0.23-0.02,0.35-0.02c4.28,0,8.56,0,12.83,0
			c0.8,0,1.61,0,2.41,0c0.07,0,0.14,0,0.21,0c0.07,0,0.08,0.01,0.08,0.08c0,0.05,0,0.09,0,0.14c0,0.06-0.01,0.07-0.08,0.07
			c-0.01,0-0.03,0-0.04,0C19.42,19.31,16.79,19.31,14.15,19.31C14.15,19.31,14.15,19.31,14.15,19.31z"/>
		<path d="M24.49,21.91c0.01,0.02,0.01,0.03,0.01,0.04c0.01,0.14,0.01,0.14-0.13,0.14c-6.23,0-12.46,0-18.69,0
			c-0.1,0-0.2-0.01-0.29,0c-0.2,0.01-0.38,0.1-0.51,0.26c-0.26,0.32-0.16,0.79,0.2,0.99c0.04,0.02,0.08,0.04,0.12,0.06
			c0.06,0.04,0.12,0.05,0.19,0.05c0.41,0,0.81,0,1.22,0c5.91,0,11.82,0,17.73,0c0.04,0,0.09,0,0.14,0c0.01,0.08,0.02,0.14,0.03,0.22
			c-0.03,0-0.06,0.01-0.09,0.01c-5.42,0-10.85,0-16.27,0c-0.93,0-1.85,0-2.78,0c-0.27,0-0.51-0.07-0.7-0.27
			c-0.25-0.26-0.32-0.58-0.2-0.92c0.12-0.33,0.38-0.52,0.73-0.58c0.06-0.01,0.12-0.01,0.18-0.01c5.5,0,11.01,0,16.51,0
			c0.83,0,1.67,0,2.5,0C24.44,21.9,24.46,21.91,24.49,21.91z"/>
		<path d="M13.85,18.73c2.23,0,4.45,0,6.68,0c0,0,0.01,0,0.01,0c0.11,0,0.14,0.05,0.11,0.15c-0.01,0.02-0.03,0.04-0.06,0.04
			c-0.03,0.01-0.07,0.01-0.11,0.01c-4.36,0-8.71,0-13.07,0c-0.15,0-0.31-0.01-0.45-0.06c-0.45-0.15-0.72-0.58-0.67-1.05
			c0.05-0.46,0.41-0.83,0.88-0.88c0.09-0.01,0.18-0.01,0.26-0.01c1.77,0,3.53,0,5.3,0c2.51,0,5.03,0,7.54,0c0.09,0,0.19,0,0.28,0
			c0.08,0,0.09,0.01,0.09,0.09c0,0.16-0.01,0.13-0.15,0.13c-3.33,0-6.66,0-9.99,0c-1.06,0-2.13,0-3.19,0c-0.18,0-0.32,0.07-0.43,0.2
			c-0.28,0.33-0.31,0.78-0.08,1.14c0.05,0.07,0.1,0.14,0.18,0.18c0.07,0.04,0.14,0.07,0.23,0.06c0.03-0.01,0.06,0,0.1,0
			C9.48,18.73,11.67,18.73,13.85,18.73z"/>
		<path d="M13.37,16.25c0.02-0.03,0.03-0.06,0.05-0.1c-0.02-0.02-0.04-0.04-0.07-0.08c0.02-0.01,0.04-0.03,0.06-0.03
			c0.05-0.01,0.1-0.01,0.15-0.01c2.59,0,5.18,0,7.77,0c0.02,0,0.03,0,0.05,0c0.07,0,0.08,0.01,0.09,0.08
			c0.01,0.1,0.02,0.21,0.01,0.31c0,0.1-0.01,0.21-0.02,0.31c-0.01,0.09-0.02,0.09-0.11,0.09c-0.32,0-0.64,0-0.97,0
			c-2.27,0-4.55,0-6.82,0c-0.05,0-0.1,0-0.16-0.01c0-0.04,0-0.08,0.01-0.1c0.03-0.05,0.02-0.1,0.02-0.14
			c-0.01-0.06-0.02-0.1,0.05-0.13c-0.03-0.04-0.06-0.06-0.09-0.09c0.02-0.02,0.04-0.05,0.07-0.08
			C13.42,16.27,13.4,16.26,13.37,16.25L13.37,16.25z"/>
		<path d="M8.34,16.19c0-0.04,0-0.07,0-0.11c0-0.49,0-0.99,0-1.48c0-0.02,0-0.03,0-0.05c0-0.05,0.02-0.07,0.07-0.07
			c0.02,0,0.04,0,0.06,0c0.66,0,1.31,0,1.97,0c0.02,0,0.04,0,0.06,0c0.04,0,0.06,0.02,0.06,0.06c0,0.02,0,0.04,0,0.06
			c0,0.49,0,0.99,0,1.48c0,0.02,0,0.04,0,0.06c0,0.03-0.02,0.05-0.05,0.06c-0.02,0-0.04,0-0.06,0c-0.66,0-1.33,0-1.99,0
			C8.41,16.19,8.38,16.19,8.34,16.19z"/>
		<path d="M9.44,14.42c-0.33,0-0.67,0-1,0c-0.1,0-0.11,0-0.11-0.1c0-0.12,0-0.23,0.01-0.35c0-0.1,0.01-0.11,0.12-0.11
			c0.44,0,0.88,0,1.32,0c0.22,0,0.44,0,0.65,0c0.11,0,0.11,0,0.12,0.12c0,0.12,0.01,0.23,0.01,0.35c0,0.09-0.01,0.09-0.09,0.09
			c-0.32,0-0.63,0-0.95,0C9.49,14.42,9.46,14.42,9.44,14.42z"/>
		<path d="M9.45,16.25c0.32,0,0.65,0,0.97,0c0.02,0,0.05,0,0.07,0c0.03,0,0.06,0.02,0.05,0.06c0,0.15,0,0.29-0.01,0.44
			c0,0.06-0.02,0.07-0.1,0.07c-0.14,0-0.29,0-0.43,0c-0.51,0-1.02,0-1.53,0c-0.01,0-0.01,0-0.02,0c-0.1,0-0.11-0.01-0.12-0.11
			c-0.01-0.06-0.01-0.13-0.01-0.19c0-0.06,0-0.12,0-0.19c0-0.06,0.01-0.07,0.08-0.07c0.02,0,0.05,0,0.07,0
			C8.8,16.25,9.13,16.25,9.45,16.25z"/>
		<path d="M21.51,16.04c0.04,0,0.06-0.01,0.09-0.01c0.17,0,0.33,0,0.5-0.01c0.15,0,0.28,0.05,0.38,0.17c0.09,0.12,0.1,0.26,0.04,0.4
			c-0.07,0.14-0.19,0.22-0.35,0.23c-0.14,0.01-0.27,0-0.41,0c-0.06,0-0.12,0-0.19,0c-0.04,0-0.07-0.02-0.06-0.07
			c0-0.05,0.01-0.09,0.01-0.14c0.02-0.18,0.02-0.35,0-0.53C21.51,16.09,21.51,16.07,21.51,16.04z"/>
		<path d="M13.37,16.25c0.03,0.07-0.03,0.08-0.06,0.1c0,0.07,0.11,0.03,0.09,0.11c-0.02,0.01-0.05,0.02-0.09,0.04
			c0.03,0.03,0.05,0.05,0.07,0.07c-0.01,0.03-0.07,0.05-0.02,0.1c0,0,0,0.02,0,0.02c-0.05,0.02-0.03,0.06-0.01,0.1
			c-0.05,0.03-0.1,0.01-0.14-0.01c-0.25-0.1-0.49-0.2-0.74-0.3c-0.01,0-0.01-0.01-0.03-0.02c0.01-0.01,0.02-0.03,0.03-0.03
			c0.25-0.1,0.5-0.2,0.75-0.3c0.03-0.01,0.06-0.02,0.08-0.01c0.02,0,0.04,0.03,0.04,0.04c0,0.01-0.02,0.03-0.03,0.04
			c-0.01,0.01-0.03,0.02-0.04,0.04C13.31,16.27,13.34,16.27,13.37,16.25C13.37,16.25,13.37,16.25,13.37,16.25z"/>
	</g>
</g>
<g id="Icon_2" class="st0">
	<g class="st1">
		<path d="M29.99,23.06c-9.99,0-19.97,0-29.97,0C0.01,23.04,0,23.01,0,22.98c0-0.04,0-0.08,0-0.12c0-5.27,0-10.54,0-15.81
			c0-0.11,0-0.11,0.12-0.11c3.72,0,7.44,0,11.16,0c6.21,0,12.41,0,18.62,0c0.12,0,0.11,0.01,0.11,0.11c0,5.3,0,10.6,0,15.91
			C30,22.99,29.99,23.02,29.99,23.06z M29.17,22c0-0.04,0-0.06,0-0.09c0-4.61,0-9.23,0-13.84c0-0.06,0-0.11,0-0.17
			c0-0.07,0-0.07-0.07-0.07c-0.01,0-0.02,0-0.03,0c-9.39,0-18.78,0-28.16,0c-0.1,0-0.1,0-0.1,0.1c0,4.66,0,9.31,0,13.97
			c0,0.11,0,0.11,0.11,0.11c4.08,0,8.15,0,12.23,0c5.31,0,10.63,0,15.94,0C29.11,22,29.14,22,29.17,22z"/>
		<path d="M8.1,16.63c0.01-0.02,0.02-0.04,0.03-0.06c0.19-0.51,0.38-1.02,0.56-1.53c0.24-0.66,0.48-1.31,0.72-1.97
			c0.23-0.63,0.46-1.26,0.7-1.88c0.08-0.22,0.18-0.43,0.31-0.63c0.13-0.2,0.32-0.31,0.55-0.34c0.25-0.03,0.5-0.01,0.72,0.13
			c0.25,0.16,0.43,0.37,0.48,0.67c0.02,0.13,0.01,0.26-0.02,0.4c-0.04,0.19-0.11,0.37-0.18,0.55c-0.24,0.58-0.47,1.17-0.71,1.75
			c-0.27,0.67-0.54,1.33-0.81,2c-0.32,0.78-0.63,1.57-0.94,2.35c-0.1,0.24-0.2,0.47-0.35,0.69c-0.21,0.3-0.5,0.48-0.87,0.52
			c-0.22,0.02-0.44,0.01-0.66-0.05c-0.12-0.04-0.23-0.1-0.32-0.17c-0.2-0.15-0.34-0.34-0.45-0.57c-0.26-0.55-0.48-1.11-0.71-1.68
			c-0.26-0.64-0.52-1.29-0.78-1.93c-0.22-0.55-0.45-1.11-0.67-1.66c-0.18-0.45-0.36-0.89-0.53-1.34c-0.06-0.15-0.1-0.32-0.14-0.48
			c-0.08-0.35,0.03-0.65,0.29-0.88c0.35-0.33,0.76-0.37,1.2-0.22c0.14,0.05,0.24,0.14,0.32,0.26c0.12,0.2,0.22,0.42,0.3,0.64
			c0.13,0.36,0.26,0.72,0.39,1.08c0.17,0.46,0.33,0.93,0.5,1.39c0.23,0.65,0.46,1.3,0.7,1.95c0.11,0.32,0.23,0.64,0.34,0.96
			c0.01,0.02,0.02,0.04,0.03,0.06C8.09,16.63,8.1,16.63,8.1,16.63z"/>
		<path d="M10.17,10.02c-1.98,0-3.96,0-5.94,0c-0.33,0-0.66-0.03-0.98-0.14C3.13,9.85,3.02,9.8,2.92,9.72
			C2.8,9.63,2.75,9.51,2.77,9.36c0.01-0.05,0.03-0.1,0.06-0.15C2.9,9.11,3,9.05,3.11,9c0.15-0.07,0.3-0.11,0.46-0.14
			C3.81,8.82,4.04,8.8,4.28,8.8c3.92,0,7.85,0,11.77,0c0.31,0,0.62,0.03,0.92,0.11c0.15,0.04,0.3,0.1,0.42,0.2
			c0.04,0.03,0.08,0.07,0.11,0.12c0.09,0.13,0.07,0.32-0.04,0.43c-0.09,0.09-0.19,0.15-0.31,0.19c-0.24,0.09-0.48,0.13-0.73,0.15
			c-0.15,0.01-0.29,0.02-0.44,0.02C14.04,10.02,12.1,10.02,10.17,10.02z"/>
		<path d="M10.17,19.55c1.95,0,3.9,0,5.85,0c0.32,0,0.64,0.02,0.95,0.1c0.14,0.04,0.27,0.09,0.38,0.17
			c0.04,0.03,0.09,0.07,0.12,0.11c0.12,0.13,0.11,0.36-0.03,0.48c-0.09,0.08-0.2,0.14-0.31,0.19c-0.23,0.09-0.46,0.12-0.7,0.14
			c-0.14,0.01-0.28,0.02-0.42,0.02c-3.93,0-7.86,0-11.78,0c-0.27,0-0.54-0.02-0.8-0.08c-0.14-0.03-0.28-0.08-0.4-0.15
			c-0.08-0.05-0.16-0.1-0.21-0.19c-0.08-0.14-0.06-0.32,0.07-0.44c0.1-0.1,0.22-0.15,0.34-0.2c0.16-0.06,0.33-0.1,0.49-0.11
			c0.22-0.02,0.43-0.04,0.65-0.04C6.3,19.55,8.24,19.55,10.17,19.55C10.17,19.55,10.17,19.55,10.17,19.55z"/>
		<path d="M14.26,14.77c0-1.15,0-2.3,0-3.45c0-0.17,0.01-0.34,0.05-0.5c0.11-0.39,0.42-0.64,0.83-0.64c0.25,0,0.47,0.07,0.64,0.25
			c0.12,0.12,0.19,0.28,0.23,0.44c0.03,0.15,0.04,0.29,0.04,0.44c0,0.88,0,1.76,0,2.64c0,1.42,0,2.85,0,4.27
			c0,0.15-0.01,0.3-0.04,0.45c-0.06,0.27-0.2,0.49-0.46,0.61c-0.46,0.22-1.08,0.06-1.25-0.56c-0.05-0.17-0.05-0.33-0.05-0.5
			c0-0.74,0-1.47,0-2.21C14.26,15.59,14.26,15.18,14.26,14.77z"/>
		<path d="M19.31,16.41c-0.04,0-0.06-0.01-0.09-0.01c-0.05,0-0.11,0-0.16,0c-0.09-0.01-0.11-0.05-0.09-0.13
			c0.04-0.15,0.1-0.29,0.17-0.43c0.02-0.03,0.03-0.05,0.05-0.08c0.06-0.08,0.13-0.12,0.24-0.12c0.74,0.01,1.47,0.02,2.21,0.03
			c0.17,0,0.34,0.01,0.52,0.02c0.08,0,0.09,0,0.09,0.09c0,0.79,0,1.58,0,2.37c0,0.97-0.01,1.95-0.02,2.92c0,0.02,0,0.03,0,0.05
			c-0.01,0.06-0.03,0.08-0.09,0.08c-0.11,0-0.14-0.04-0.14-0.16c0-0.15-0.01-0.31-0.02-0.46c-0.09-1.08-0.19-2.15-0.28-3.23
			c-0.02-0.27-0.04-0.55-0.06-0.82c-0.01-0.09-0.01-0.1-0.1-0.1c-0.15,0-0.29,0-0.44-0.01c-0.09,0-0.09,0-0.09,0.1
			c0,0.29,0.01,0.57,0.01,0.86c0,0.47,0,0.93,0,1.4c0,0.14-0.05,0.15-0.16,0.1c-0.03-0.02-0.06-0.05-0.08-0.08
			c-0.08-0.13-0.18-0.24-0.29-0.35c-0.24-0.22-0.53-0.34-0.85-0.39c-0.1-0.01-0.2,0-0.29,0.03c-0.07,0.02-0.15,0.04-0.22,0.05
			c-0.05,0.01-0.1,0.01-0.15,0c-0.11-0.02-0.17-0.11-0.16-0.22c0.01-0.07,0.04-0.14,0.09-0.2c0.03-0.03,0.04-0.06,0.03-0.1
			c-0.02-0.31,0.03-0.61,0.19-0.89c0.05-0.09,0.12-0.18,0.18-0.26C19.28,16.45,19.29,16.43,19.31,16.41z M20.77,18.43
			c0.01,0,0.01,0,0.02-0.01c0-0.03,0-0.05-0.01-0.08c-0.04-0.27-0.09-0.54-0.13-0.82c-0.05-0.33-0.1-0.66-0.14-0.99
			c-0.02-0.12-0.02-0.12-0.14-0.13c-0.1,0-0.19,0-0.29-0.01c-0.1-0.01-0.17,0.03-0.24,0.09c-0.26,0.26-0.46,0.56-0.63,0.88
			c-0.01,0.01-0.01,0.03-0.01,0.05c0.04-0.01,0.07-0.02,0.1-0.03c0.17-0.05,0.35-0.06,0.52,0c0.26,0.08,0.47,0.24,0.62,0.47
			c0.1,0.15,0.19,0.32,0.28,0.48C20.74,18.38,20.76,18.41,20.77,18.43z"/>
		<path d="M24.85,9.63c-0.03-0.01-0.04-0.01-0.06-0.01c-0.15,0-0.31,0-0.46,0.01c-0.31,0.02-0.51,0.19-0.63,0.46
			c-0.05,0.13-0.1,0.26-0.12,0.39c-0.07,0.33-0.1,0.67-0.11,1.02c-0.01,0.51-0.01,1.03-0.02,1.54c0,0.06-0.01,0.12,0,0.17
			c0.01,0.1-0.03,0.19-0.08,0.27c-0.02,0.04-0.05,0.04-0.07,0c-0.02-0.05-0.05-0.11-0.05-0.16c-0.05-0.51-0.09-1.03-0.09-1.54
			c0-0.46,0.01-0.92,0.02-1.38c0-0.18,0.02-0.35,0.04-0.53c0.04-0.28,0.14-0.54,0.32-0.75c0.05-0.06,0.12-0.12,0.19-0.17
			c0.05-0.03,0.11-0.06,0.16-0.07c0.22-0.03,0.43-0.06,0.65-0.06c0.59,0,1.18,0.01,1.77,0.01c0.14,0,0.27,0,0.41,0
			c0.03,0,0.06,0,0.09,0c0.1,0.01,0.15,0.06,0.15,0.16c0,0.17-0.05,0.32-0.17,0.44c-0.03,0.03-0.06,0.06-0.09,0.08
			c-0.04,0.02-0.05,0.06-0.05,0.1c0.02,0.32,0.03,0.63,0.04,0.95c0.02,0.63,0.04,1.26,0.06,1.89c0,0.02,0,0.04,0,0.06
			c-0.01,0.02-0.03,0.05-0.05,0.05c-0.01,0-0.04-0.02-0.05-0.03c-0.05-0.07-0.1-0.15-0.16-0.21c-0.26-0.28-0.56-0.5-0.92-0.63
			c-0.24-0.09-0.5-0.12-0.75-0.09c-0.08,0.01-0.16,0.02-0.23,0.03c-0.26,0.03-0.38-0.24-0.29-0.42c0.03-0.05,0.06-0.1,0.09-0.14
			c0.01-0.02,0.03-0.05,0.03-0.08c-0.02-0.21,0.01-0.41,0.06-0.61c0.06-0.26,0.17-0.5,0.34-0.71C24.83,9.67,24.83,9.65,24.85,9.63z
			 M24.58,10.9c0.04-0.01,0.06-0.02,0.09-0.03c0.19-0.08,0.4-0.11,0.6-0.08c0.35,0.05,0.64,0.2,0.87,0.46
			c0.17,0.18,0.29,0.39,0.4,0.62c0.01,0.03,0.03,0.05,0.04,0.08c0.01,0,0.01,0,0.02,0c0-0.02,0.01-0.05,0.01-0.07
			c0-0.08,0-0.16-0.01-0.23c-0.04-0.38-0.08-0.76-0.13-1.13c-0.02-0.14-0.03-0.28-0.06-0.42c-0.02-0.1-0.05-0.19-0.08-0.29
			c-0.04-0.11-0.12-0.17-0.23-0.19C26.07,9.6,26.04,9.59,26,9.6c-0.1,0.01-0.21,0.02-0.31,0.04c-0.25,0.06-0.48,0.16-0.66,0.34
			c-0.23,0.24-0.37,0.53-0.45,0.85C24.58,10.85,24.58,10.87,24.58,10.9z"/>
		<path d="M22.33,11.88c-0.01,0.95-0.02,1.9-0.04,2.85c0,0.03,0,0.07-0.01,0.1c-0.01,0.03-0.03,0.05-0.05,0.04
			c-0.02,0-0.04-0.03-0.05-0.04c-0.01-0.01-0.01-0.04-0.01-0.05c-0.07-0.94-0.15-1.88-0.22-2.82c-0.05-0.66-0.1-1.33-0.15-2
			c0-0.05-0.01-0.11-0.01-0.16c-0.01-0.09-0.01-0.1-0.1-0.09c-0.11,0.01-0.22,0.02-0.34,0.02c-0.11,0.01-0.22,0.01-0.34,0.02
			c-0.07,0-0.07,0.01-0.07,0.08c0,0.8,0,1.59,0,2.39c0,0.03,0,0.06-0.01,0.08c-0.01,0.02-0.03,0.04-0.04,0.04
			c-0.02,0-0.03-0.02-0.05-0.03c-0.01-0.01-0.01-0.02-0.01-0.04c-0.03-0.21-0.06-0.42-0.1-0.63c-0.09-0.58-0.19-1.17-0.28-1.75
			c-0.02-0.13-0.02-0.13-0.15-0.12c-0.08,0-0.15,0.01-0.23,0.01c-0.04,0-0.06,0.02-0.07,0.06c-0.02,0.3-0.17,0.54-0.37,0.75
			c-0.1,0.11-0.21,0.19-0.35,0.25c-0.02,0.01-0.05,0.02-0.07,0.03c-0.11,0.04-0.18,0.12-0.22,0.23c-0.01,0.03-0.02,0.08-0.06,0.08
			c-0.05,0-0.06-0.05-0.07-0.08c-0.02-0.06-0.03-0.12-0.01-0.18c0.05-0.15,0.13-0.26,0.26-0.35c0.05-0.03,0.1-0.05,0.15-0.07
			c0.14-0.06,0.23-0.15,0.28-0.29c0.04-0.11,0.06-0.22,0.05-0.33c0-0.05-0.01-0.06-0.07-0.06c-0.09,0-0.18,0.01-0.27,0.01
			c-0.12,0.01-0.17-0.04-0.19-0.16c-0.01-0.11-0.01-0.22,0.03-0.32c0.03-0.09,0.07-0.17,0.12-0.25c0.08-0.12,0.19-0.18,0.33-0.18
			c0.87,0,1.75-0.01,2.62-0.01c0.02,0,0.04,0,0.05,0c0.06,0.01,0.08,0.03,0.08,0.09c0,0.8,0,1.61,0,2.41
			C22.33,11.56,22.33,11.72,22.33,11.88C22.33,11.88,22.33,11.88,22.33,11.88z"/>
		<path d="M24.09,16.52c-0.03,0-0.05,0-0.06,0c-0.14,0.03-0.29-0.1-0.3-0.24c-0.02-0.25,0.05-0.46,0.23-0.64
			c0.08-0.08,0.19-0.09,0.3-0.09c0.23,0,0.46,0,0.7,0c0.34,0,0.68-0.01,1.02-0.02c0.09,0,0.17,0,0.26,0.01
			c0.13,0.01,0.2,0.07,0.24,0.19c0.03,0.11,0.01,0.22-0.03,0.32c-0.08,0.17-0.21,0.29-0.39,0.35c-0.16,0.06-0.33,0.09-0.5,0.09
			c-0.17,0-0.35,0-0.52-0.02c-0.16-0.02-0.3,0.02-0.43,0.11c-0.15,0.1-0.28,0.22-0.37,0.37c-0.11,0.18-0.2,0.36-0.24,0.56
			c-0.01,0.03-0.01,0.06-0.02,0.1c0.04-0.01,0.07-0.02,0.09-0.02c0.33-0.1,0.66-0.14,1-0.08c0.27,0.05,0.53,0.16,0.76,0.32
			c0.27,0.18,0.53,0.39,0.76,0.62c0.29,0.3,0.51,0.64,0.67,1.02c0.02,0.04,0.03,0.07,0.03,0.11c0.01,0.03-0.01,0.07-0.04,0.08
			c-0.02,0.01-0.05-0.01-0.08-0.02c-0.02-0.01-0.03-0.03-0.04-0.05c-0.14-0.24-0.33-0.43-0.54-0.6c-0.57-0.46-1.22-0.64-1.94-0.55
			c-0.18,0.02-0.35,0.06-0.52,0.09c-0.09,0.02-0.18,0.03-0.27,0.04c-0.22,0.01-0.35-0.13-0.34-0.35c0.01-0.13,0.05-0.24,0.13-0.35
			c0.04-0.06,0.06-0.12,0.06-0.2c0-0.3,0.05-0.59,0.18-0.86c0.05-0.09,0.1-0.18,0.17-0.25C24.06,16.56,24.07,16.55,24.09,16.52z"/>
		<path d="M28.47,18.47c0.03,0.9,0.05,1.73,0.08,2.55c0,0.02,0,0.04,0,0.06c0,0.05-0.03,0.08-0.08,0.1
			c-0.11,0.04-0.19,0.01-0.27-0.06c-0.04-0.03-0.04-0.08-0.04-0.12c-0.01-0.22-0.02-0.44-0.03-0.66c-0.02-0.65-0.03-1.29-0.05-1.94
			c-0.02-0.47-0.05-0.95-0.12-1.42c-0.04-0.24-0.09-0.49-0.15-0.73c-0.03-0.14-0.09-0.28-0.17-0.4c-0.04-0.05-0.08-0.11-0.13-0.15
			c-0.06-0.05-0.02-0.12,0.04-0.13c0.02,0,0.04-0.01,0.05-0.01c0.2-0.01,0.4-0.02,0.6-0.03c0.03,0,0.05,0,0.08,0.01
			c0.09,0.02,0.14,0.07,0.15,0.16c0,0.04,0,0.08,0,0.12c-0.03,0.26-0.03,0.51-0.02,0.77C28.43,17.25,28.45,17.9,28.47,18.47z"/>
		<path d="M27.71,8.88c0.1,0.01,0.19,0.01,0.29,0.02c0.05,0,0.08,0.03,0.09,0.08c0.01,0.05,0.01,0.09,0.01,0.14
			c-0.01,0.11-0.03,0.21-0.05,0.32c0,0.02-0.01,0.04-0.02,0.05C28,9.54,27.95,9.55,27.9,9.5c-0.01-0.01-0.02-0.02-0.02-0.03
			c-0.1-0.14-0.2-0.27-0.3-0.41c-0.01-0.02-0.03-0.03-0.04-0.05c-0.06-0.09-0.04-0.12,0.06-0.13C27.63,8.88,27.68,8.88,27.71,8.88z"
			/>
		<path d="M22.99,15.7c0.19,0,0.24,0.05,0.22,0.2c-0.02,0.09-0.05,0.19-0.07,0.28c-0.01,0.02-0.02,0.04-0.03,0.06
			c-0.04,0.06-0.1,0.06-0.16,0.01c-0.01-0.01-0.03-0.03-0.04-0.05c-0.06-0.09-0.13-0.19-0.19-0.29c-0.02-0.03-0.03-0.07-0.04-0.1
			c-0.01-0.05,0.02-0.07,0.07-0.08C22.84,15.72,22.94,15.71,22.99,15.7z"/>
		<path d="M23.05,9.18c-0.01,0.08-0.01,0.14-0.02,0.2c0,0.02-0.01,0.05-0.02,0.07c-0.03,0.05-0.07,0.06-0.11,0.02
			c-0.05-0.05-0.09-0.1-0.12-0.15c-0.06-0.1-0.12-0.2-0.17-0.31c-0.03-0.06-0.02-0.07,0.04-0.08c0.09-0.01,0.18-0.02,0.26-0.02
			c0.06,0,0.11,0.03,0.12,0.1C23.04,9.08,23.04,9.14,23.05,9.18z"/>
	</g>
</g>
<g id="Icon_1" class="st0">
	<g class="st1">
		<path d="M24.74,1.21c0.01,0.04,0.02,0.08,0.02,0.12c0,2.64,0,5.28,0,7.91c0,0.08-0.02,0.14-0.08,0.19
			c-0.17,0.17-0.33,0.35-0.49,0.52c-0.01,0.01-0.03,0.03-0.04,0.04C24.14,10,24.14,10,24.13,9.99c0,0,0-0.01,0-0.01
			c0-0.01,0-0.03,0-0.04c0-2.68,0-5.35,0-8.03c0,0,0-0.01,0-0.01c0,0-0.01-0.01-0.01-0.01c0,0-0.01-0.01-0.01-0.01
			c-0.03,0-0.07-0.01-0.1-0.01c-6.41,0-12.82,0-19.22,0C4.76,1.89,4.76,1.89,4.76,1.9c0,0-0.01,0.01-0.01,0.01
			c0,0.04-0.01,0.08-0.01,0.13c0,5.29,0,10.58,0,15.88c0.03,0.01,0.06,0.02,0.09,0.02c0.04,0,0.08,0,0.12,0c4,0,8,0,12,0
			c0.04,0,0.09,0,0.16,0c-0.03,0.04-0.04,0.06-0.05,0.07c-0.19,0.19-0.39,0.38-0.58,0.58c-0.05,0.05-0.1,0.07-0.17,0.07
			c-0.02,0-0.04,0-0.06,0c-3.97,0-7.95,0-11.92,0c-0.06,0-0.12,0-0.19,0c0-0.06,0-0.11,0-0.16c0-0.98,0-1.96,0-2.94
			c0-4.74,0-9.48,0-14.21c0-0.04,0-0.08,0-0.11C11,1.21,17.87,1.21,24.74,1.21z"/>
		<path d="M29.6,24.61c0.01,1.13,0,2.25,0,3.37c-0.07,0-0.13,0-0.18,0c-4.83,0-9.67,0-14.5,0c-4.12,0-8.24,0-12.36,0
			c-0.33,0-0.65-0.05-0.94-0.21c-0.65-0.36-0.99-1.1-0.84-1.82c0.16-0.74,0.76-1.27,1.53-1.33c0.08-0.01,0.17-0.01,0.26-0.01
			c8.95,0,17.9,0,26.85,0C29.47,24.61,29.52,24.61,29.6,24.61z"/>
		<path d="M29.66,22.93c-0.08,0-0.13,0-0.19,0c-8.85,0-17.71,0-26.56,0c-0.18,0-0.36,0.01-0.54-0.01c-0.55-0.05-0.99-0.29-1.3-0.76
			c-0.68-1.03-0.04-2.42,1.18-2.58c0.12-0.02,0.25-0.02,0.37-0.02c4.45,0,8.91,0,13.36,0c0.05,0,0.09,0,0.15,0
			c-0.02,0.04-0.02,0.07-0.04,0.1c-0.1,0.2-0.2,0.39-0.3,0.59c-0.1,0.2-0.19,0.4-0.29,0.59c-0.04,0.09-0.04,0.17-0.03,0.26
			c0.01,0.05,0.05,0.09,0.1,0.1c0.06,0,0.14,0.02,0.19-0.01c0.13-0.06,0.26-0.13,0.38-0.2c0.03-0.01,0.04-0.04,0.07-0.05
			c0.32-0.11,0.61-0.28,0.91-0.44c0.25-0.14,0.5-0.27,0.75-0.41c0.06-0.03,0.12-0.08,0.17-0.13c0.11-0.1,0.22-0.21,0.33-0.32
			c0.06-0.07,0.13-0.09,0.23-0.09c1.13,0,2.26,0,3.39,0c2.49,0,4.98,0,7.47,0c0.14,0,0.18-0.04,0.18,0.17c0,0.77,0,1.54,0,2.31
			c0,0.24,0,0.49,0,0.73C29.66,22.81,29.66,22.86,29.66,22.93z"/>
		<path d="M29.91,23.99c0,0.14,0,0.26,0,0.4c-0.05,0-0.1,0.01-0.15,0.01c-1.54,0-3.09,0-4.63,0c-7.52,0-15.05,0-22.57,0
			c-0.21,0-0.43,0-0.64,0.05c-0.93,0.22-1.56,1.09-1.48,2.03c0.09,0.96,0.84,1.7,1.8,1.76c0.12,0.01,0.25,0.01,0.37,0.01
			c9.04,0,18.07,0,27.11,0c0.05,0,0.11,0,0.17,0c0,0.18,0,0.34,0,0.52c-0.06,0.01-0.12,0.01-0.18,0.01c-0.42,0-0.84,0-1.27,0
			c-8.6,0-17.2,0-25.81,0c-0.32,0-0.63,0-0.94-0.1c-0.92-0.3-1.51-0.91-1.67-1.86c-0.22-1.29,0.47-2.29,1.52-2.69
			c0.22-0.08,0.44-0.13,0.67-0.14c0.14-0.01,0.28-0.01,0.42-0.01c8.88,0,17.76,0,26.64,0c0.14,0,0.27,0,0.41,0
			C29.77,23.98,29.83,23.99,29.91,23.99z"/>
		<path d="M16.48,18.93c-0.07,0.14-0.13,0.25-0.19,0.36c-0.01,0.02-0.05,0.04-0.08,0.05c-0.04,0.01-0.08,0-0.11,0
			c-4.46,0-8.93,0-13.39,0c-0.22,0-0.44,0-0.66,0.04c-0.92,0.19-1.58,1.01-1.54,1.96c0.04,0.95,0.76,1.73,1.7,1.84
			c0.16,0.02,0.31,0.02,0.47,0.02c4.83,0,9.67,0,14.5,0c4.22,0,8.43,0,12.65,0c0.02,0,0.04,0,0.06,0c0.1,0,0.11,0.02,0.11,0.11
			c0,0.1,0,0.2,0,0.31c0,0.09-0.02,0.11-0.1,0.11c-0.06,0.01-0.12,0-0.18,0c-5.3,0-10.61,0-15.91,0c-3.69,0-7.37,0-11.06,0
			c-0.28,0-0.56,0-0.84-0.07c-0.89-0.23-1.5-0.78-1.75-1.66c-0.26-0.88-0.06-1.68,0.58-2.35c0.44-0.47,1-0.7,1.64-0.72
			c0.28-0.01,0.56-0.01,0.84-0.01c4.37,0,8.73,0,13.1,0C16.36,18.93,16.41,18.93,16.48,18.93z"/>
		<path d="M17.05,6.86C17.03,6.86,17.01,6.85,17,6.85c-0.26,0-0.52,0-0.78,0.02c-0.52,0.03-0.88,0.31-1.1,0.78
			c-0.09,0.2-0.16,0.41-0.2,0.63c-0.13,0.64-0.19,1.29-0.2,1.94c-0.01,0.87-0.02,1.74-0.02,2.61c0,0.05,0,0.1,0,0.15
			c0,0.08-0.01,0.15-0.06,0.22c-0.02,0.03-0.03,0.07-0.05,0.1c-0.02,0.03-0.04,0.06-0.07,0.1c-0.09-0.11-0.14-0.23-0.15-0.35
			c-0.02-0.18-0.04-0.36-0.05-0.53c-0.03-0.44-0.05-0.88-0.08-1.31c-0.01-0.09-0.01-0.18-0.01-0.27c0-1.12-0.03-2.24,0.06-3.36
			c0.03-0.39,0.12-0.76,0.29-1.12c0.1-0.21,0.24-0.4,0.41-0.57c0.17-0.17,0.37-0.27,0.61-0.27c0.03,0,0.07,0,0.1-0.01
			c0.37-0.08,0.74-0.09,1.12-0.09c0.88,0.01,1.76,0.02,2.63,0.03c0.24,0,0.49,0,0.73,0c0.04,0,0.09,0,0.13,0
			c0.18,0.01,0.27,0.09,0.26,0.27c-0.01,0.28-0.09,0.53-0.28,0.74c-0.05,0.05-0.1,0.1-0.15,0.13c-0.07,0.04-0.08,0.08-0.08,0.16
			c0.03,0.5,0.05,1,0.07,1.51c0.04,0.89,0.07,1.78,0.1,2.67c0.01,0.2,0.01,0.4,0.01,0.6c0,0.04,0,0.08-0.01,0.11
			c-0.02,0.03-0.05,0.06-0.08,0.07c-0.02,0-0.06-0.03-0.08-0.05c-0.04-0.05-0.07-0.12-0.11-0.17c-0.51-0.62-1.13-1.08-1.9-1.32
			c-0.37-0.11-0.75-0.12-1.13-0.07c-0.11,0.01-0.21,0.03-0.32,0.04c-0.44,0.05-0.63-0.39-0.48-0.69c0.05-0.09,0.11-0.17,0.17-0.26
			c0.04-0.05,0.06-0.09,0.04-0.15c-0.01-0.03-0.01-0.07-0.01-0.1c0.01-0.51,0.1-1.01,0.31-1.48c0.1-0.22,0.22-0.42,0.37-0.61
			c0.01-0.02,0.03-0.03,0.04-0.05C17.05,6.89,17.05,6.88,17.05,6.86z M19.96,10.77c0.01,0,0.02,0,0.03-0.01
			c0-0.04,0.01-0.08,0.01-0.12c-0.01-0.15-0.01-0.3-0.02-0.45c-0.09-0.8-0.18-1.6-0.27-2.4c-0.02-0.16-0.05-0.32-0.09-0.48
			c-0.11-0.4-0.28-0.52-0.69-0.51c-0.38,0.02-0.74,0.12-1.08,0.29c-0.19,0.1-0.36,0.22-0.51,0.38c-0.38,0.4-0.6,0.88-0.72,1.42
			c-0.01,0.03,0,0.06,0,0.11c0.04-0.02,0.07-0.03,0.1-0.04c0.38-0.17,0.78-0.21,1.19-0.14c0.48,0.09,0.89,0.31,1.24,0.65
			c0.34,0.33,0.58,0.73,0.77,1.17C19.92,10.69,19.94,10.73,19.96,10.77z"/>
		<path d="M10.53,7.09c0,0.04-0.01,0.06-0.01,0.09c0.01,1.01,0.01,2.01,0.02,3.02c0,0.34,0,0.68,0,1.02c0,0.04,0,0.09-0.01,0.13
			c-0.01,0.03-0.05,0.07-0.08,0.07c-0.03,0-0.06-0.04-0.08-0.06c-0.01-0.01-0.01-0.03-0.01-0.05c-0.07-0.43-0.13-0.86-0.2-1.29
			C10.01,9.1,9.87,8.19,9.73,7.28c-0.04-0.23-0.02-0.21-0.25-0.2c-0.17,0-0.33,0.01-0.5,0.01C8.97,7.13,8.96,7.16,8.96,7.18
			C8.87,7.98,8.5,8.57,7.76,8.91C7.68,8.95,7.59,8.99,7.52,9.04C7.41,9.12,7.35,9.23,7.3,9.36C7.28,9.4,7.27,9.46,7.21,9.47
			c-0.06,0-0.09-0.06-0.11-0.11C7.04,9.23,7.03,9.1,7.08,8.97c0.09-0.24,0.23-0.43,0.45-0.55C7.6,8.38,7.68,8.34,7.75,8.31
			C8.04,8.2,8.19,7.98,8.27,7.69c0.04-0.16,0.05-0.32,0.04-0.48C8.3,7.11,8.29,7.1,8.19,7.1C8,7.1,7.8,7.11,7.6,7.11
			c-0.16,0-0.2-0.02-0.2-0.18c0-0.35,0.06-0.7,0.28-0.99c0.14-0.19,0.33-0.28,0.56-0.28c1.21-0.01,2.41-0.01,3.62-0.02
			c0.26,0,0.51,0,0.77,0c0.04,0,0.08,0,0.11,0.01c0.07,0.01,0.1,0.05,0.1,0.12c0.03,3.21-0.05,6.42-0.08,9.64
			c0,0.06,0,0.11-0.01,0.17c-0.01,0.04-0.04,0.08-0.09,0.08c-0.05,0-0.08-0.03-0.08-0.08c0-0.02-0.01-0.05-0.01-0.08
			c-0.18-2.37-0.36-4.73-0.54-7.1c-0.03-0.4-0.06-0.81-0.09-1.21c-0.01-0.14-0.01-0.14-0.15-0.14c-0.38,0.01-0.77,0.02-1.15,0.03
			C10.61,7.07,10.58,7.08,10.53,7.09z"/>
		<path d="M24.76,18.64c-1.63,0-3.25,0-4.88,0c0.02-0.03,0.03-0.06,0.05-0.08c0.15-0.17,0.31-0.34,0.45-0.52
			c0.07-0.08,0.13-0.11,0.24-0.11c1.11,0,2.22,0,3.32,0c0.05,0,0.11,0,0.18,0c0-0.07,0-0.12,0-0.17c0-1.05,0-2.1,0-3.16
			c0-0.1,0.03-0.17,0.1-0.24c0.15-0.15,0.29-0.32,0.43-0.47c0.03-0.03,0.05-0.06,0.08-0.09c0.01,0,0.02,0,0.02,0
			c0,0,0.01,0,0.01,0.01c0,0.03,0,0.05,0,0.08C24.76,15.47,24.76,17.05,24.76,18.64z"/>
		<path d="M18.73,19.34c0.14-0.14,0.25-0.26,0.37-0.38c0.02-0.02,0.05-0.03,0.08-0.03c0.03-0.01,0.07,0,0.1,0c3.37,0,6.74,0,10.1,0
			c0.16,0,0.32,0,0.47,0c0.13,0,0.14,0.02,0.14,0.14c0,0.05,0,0.09,0,0.14c0,0.12-0.01,0.13-0.13,0.13c-0.02,0-0.03,0-0.05,0
			c-3.64,0-7.29,0-10.93,0C18.84,19.34,18.8,19.34,18.73,19.34z"/>
		<path d="M27.51,10.29c-0.21-0.43-0.45-0.83-0.9-1.05c0.02-0.03,0.03-0.05,0.05-0.06c0.35-0.35,0.7-0.7,1.05-1.05
			c0.06-0.06,0.12-0.07,0.19-0.02c0.23,0.19,0.44,0.39,0.62,0.62c0.05,0.07,0.11,0.13,0.16,0.2c0.07,0.09,0.06,0.14-0.01,0.23
			c-0.03,0.03-0.06,0.06-0.09,0.09c-0.34,0.33-0.68,0.66-1.02,0.99C27.55,10.26,27.54,10.27,27.51,10.29z"/>
		<path d="M16.89,18.61c0.07,0,0.12,0,0.17,0c0,0.04,0,0.07,0,0.13c0.03,0,0.06,0,0.09,0c0.03,0,0.07-0.01,0.11-0.01
			c-0.01,0.04-0.02,0.08-0.02,0.11c0.06,0.06,0.12-0.02,0.18,0.02c-0.01,0.04-0.02,0.07-0.03,0.13c0.06-0.01,0.1-0.01,0.16-0.02
			c-0.01,0.04-0.01,0.07-0.02,0.12c0.05,0,0.1,0,0.16,0c-0.02,0.05-0.04,0.09-0.05,0.12c0.04,0.07,0.1,0.01,0.15,0.03
			c-0.01,0.03-0.02,0.06-0.03,0.1c0.04,0.01,0.08,0.01,0.12,0.02c-0.01,0.03-0.03,0.06-0.04,0.1c0.04,0.01,0.08,0.03,0.12,0.04
			c-0.01,0.03-0.02,0.06-0.04,0.09c0.04,0.01,0.07,0.03,0.11,0.04c-0.01,0.02-0.02,0.05-0.02,0.07c0.01,0.12-0.07,0.17-0.16,0.22
			c-0.5,0.26-1,0.53-1.5,0.79c-0.17,0.09-0.17,0.08-0.31-0.05c-0.01-0.01-0.02-0.02-0.03-0.03c-0.12-0.12-0.12-0.12-0.04-0.27
			c0.24-0.47,0.49-0.95,0.74-1.42C16.74,18.83,16.82,18.72,16.89,18.61z"/>
		<path d="M26.8,9.51c0.04,0.04,0.07,0.06,0.12,0.11c-3.17,3.06-6.34,6.11-9.5,9.16c-0.04-0.06-0.06-0.11-0.1-0.17
			C20.46,15.58,23.63,12.55,26.8,9.51z"/>
		<path d="M27.1,9.85C27.03,9.84,27,9.89,26.95,9.93c-0.52,0.5-1.04,1-1.56,1.5c-2.4,2.3-4.79,4.6-7.19,6.91
			c-0.16,0.15-0.32,0.31-0.48,0.46c-0.05,0.05-0.11,0.09-0.2,0.08c0-0.09,0.03-0.15,0.09-0.21c3.08-2.97,6.16-5.94,9.24-8.91
			c0.03-0.03,0.06-0.06,0.11-0.09C27.02,9.73,27.06,9.79,27.1,9.85L27.1,9.85z"/>
		<path d="M27.1,9.85c0.03,0.04,0.06,0.07,0.09,0.12c-3.13,3.03-6.25,6.05-9.36,9.07c-0.06-0.02-0.12-0.03-0.18-0.06
			c0.05-0.05,0.09-0.09,0.13-0.14c1-0.96,2-1.92,3-2.88c2.07-1.99,4.15-3.98,6.22-5.98C27.04,9.95,27.07,9.89,27.1,9.85
			C27.1,9.85,27.1,9.85,27.1,9.85z"/>
		<path d="M27.26,10.06c0,0.02,0,0.05-0.01,0.06c-0.02,0.03-0.05,0.06-0.08,0.08c-3.03,2.98-6.06,5.97-9.09,8.95
			c-0.05,0.05-0.08,0.11-0.17,0.1c-0.01-0.05-0.02-0.1-0.03-0.16c3.11-3.01,6.23-6.03,9.35-9.05
			C27.23,10.05,27.24,10.06,27.26,10.06z"/>
		<path d="M18.11,19.68c-0.04-0.16,0.07-0.23,0.16-0.32c3.01-2.97,6.02-5.95,9.03-8.92c0.02-0.02,0.05-0.05,0.08-0.07
			c0.04,0.03,0.05,0.06,0.03,0.1c-0.03,0.03-0.06,0.06-0.09,0.09c-2.59,2.57-5.18,5.14-7.77,7.71c-0.46,0.46-0.92,0.91-1.38,1.37
			C18.14,19.65,18.12,19.67,18.11,19.68z"/>
		<path d="M27.3,10.19c0.06,0.08,0.06,0.08,0,0.15c-0.38,0.37-0.76,0.75-1.14,1.12c-2.66,2.63-5.33,5.26-7.99,7.9
			c-0.02,0.02-0.04,0.05-0.06,0.08c-0.05-0.02-0.08-0.03-0.12-0.04c0-0.01,0-0.03,0-0.03c0.04-0.04,0.08-0.09,0.12-0.13
			c3.04-2.99,6.08-5.99,9.12-8.98C27.25,10.24,27.27,10.22,27.3,10.19z"/>
		<path d="M26.72,9.47c-3.18,3.05-6.35,6.09-9.53,9.15c-0.03-0.1,0.01-0.15,0.07-0.2c0.82-0.78,1.64-1.57,2.45-2.35
			c2.27-2.18,4.55-4.36,6.82-6.54c0.03-0.03,0.06-0.06,0.09-0.09C26.66,9.41,26.69,9.42,26.72,9.47z"/>
		<path d="M26.56,9.39c-3.18,3.05-6.35,6.09-9.53,9.14c-0.01-0.01-0.01-0.01-0.02-0.02c0.02-0.02,0.03-0.04,0.05-0.06
			c0.32-0.32,0.65-0.63,0.97-0.95c0.51-0.5,1.03-1,1.54-1.5c0.78-0.76,1.56-1.52,2.35-2.28c1.36-1.31,2.72-2.63,4.09-3.94
			c0.14-0.14,0.29-0.26,0.44-0.4C26.47,9.35,26.51,9.32,26.56,9.39z"/>
		<path d="M21.44,5.68c0.08-0.02,0.13-0.05,0.18-0.05c0.14,0,0.29,0,0.43,0c0.08,0,0.15,0.01,0.23,0.01
			c0.1,0.01,0.15,0.04,0.17,0.14c0.01,0.07,0.02,0.14,0.01,0.21c-0.02,0.18-0.05,0.36-0.08,0.54c0,0.02-0.01,0.03-0.01,0.05
			c-0.02,0.06-0.04,0.12-0.11,0.13c-0.08,0.01-0.11-0.04-0.15-0.09c-0.18-0.24-0.36-0.48-0.53-0.72C21.54,5.84,21.5,5.77,21.44,5.68
			z"/>
		<path d="M13.24,5.75c0.09-0.05,0.17-0.05,0.26-0.06c0.09-0.01,0.19-0.01,0.28-0.01c0.12,0,0.19,0.05,0.22,0.16
			c0.02,0.06,0.03,0.13,0.03,0.19c0,0.15-0.01,0.3-0.02,0.45c0,0.03-0.01,0.07-0.03,0.1c-0.04,0.09-0.14,0.11-0.21,0.04
			c-0.08-0.09-0.16-0.19-0.22-0.29c-0.09-0.15-0.17-0.3-0.26-0.46C13.27,5.82,13.26,5.79,13.24,5.75z"/>
		<path d="M15.84,20.6c0.08,0.08,0.14,0.15,0.22,0.24c-0.13,0.09-0.26,0.14-0.4,0.2C15.66,20.95,15.74,20.76,15.84,20.6z"/>
	</g>
</g>
</svg>
