<?xml version="1.0" encoding="UTF-8"?><svg id="Layer_1" xmlns="http://www.w3.org/2000/svg" viewBox="0 0 1019.9 101.32"><path d="m638.5,58.73c0-10.2-3.7-18.92-11.12-26.17-7.43-7.17-16.36-10.76-26.83-10.76s-19.4,3.59-26.82,10.76c-7.35,7.18-11.06,15.8-11.12,25.87-.08,10.35,3.64,19.16,11.12,26.48,7.42,7.24,16.36,10.86,26.82,10.86s19.4-3.62,26.83-10.86c.52-.5,1.01-1.02,1.49-1.55,1.48-1.61.31-4.22-1.87-4.22h0c-.66,0-1.28.3-1.72.79-.46.52-.95,1.03-1.45,1.52-6.41,6.25-14.17,9.38-23.29,9.38s-16.86-3.13-23.27-9.38c-5.58-5.43-8.72-11.96-9.45-19.58-.03-.36.26-.68.62-.68h67.59c1.36,0,2.47-1.11,2.47-2.47h0Zm-70.06-2.36c-.36,0-.65-.32-.62-.68.73-7.62,3.88-14.17,9.45-19.68,6.41-6.25,14.17-9.38,23.27-9.38s16.88,3.13,23.29,9.38c5.56,5.51,8.72,12.06,9.45,19.68.03.36-.26.68-.62.68h-64.22Z" fill="#383838" stroke="#003954" stroke-miterlimit="10" strokeWidth="11"/><path d="m232.66,101.32c-11.97,0-22.3-4.19-30.68-12.45-8.46-8.18-12.77-18.32-12.77-30.09V24.37c0-4.43,3.6-8.03,8.03-8.03h.68c1.97,0,3.81.77,5.2,2.16,1.39,1.39,2.15,3.24,2.14,5.21l-.1,35.08c.06,7.37,2.69,13.53,8.06,18.76,5.39,5.26,11.75,7.82,19.44,7.82s13.99-2.56,19.46-7.84c5.33-5.21,7.94-11.35,7.94-18.76V23.9c0-4.16,3.39-7.55,7.55-7.55h.65c4.27,0,7.75,3.48,7.75,7.75v34.36c0,11.01-4,21.3-11.25,28.98-8.71,9.21-19.51,13.89-32.1,13.89Z" fill="#003954"/><path d="m301.58,84.95c-7.42-7.18-11.13-15.9-11.13-26.17s3.71-18.93,11.13-26.17c7.35-7.18,16.29-10.76,26.82-10.76s19.4,3.59,26.82,10.76c3.01,2.99,5.42,6.32,7.23,9.98.65,1.31-.33,2.86-1.8,2.86h-1.51c-.49,0-.93-.28-1.15-.71-1.64-3.2-3.75-6.1-6.33-8.67-6.48-6.25-14.24-9.38-23.28-9.38s-16.87,3.13-23.28,9.38c-6.41,6.32-9.62,13.89-9.62,22.72s3.2,16.46,9.62,22.72c6.41,6.26,14.17,9.38,23.28,9.38s16.8-3.13,23.28-9.38c2.58-2.52,4.69-5.4,6.33-8.66.22-.44.66-.72,1.15-.72h0c2.21,0,3.62,2.38,2.56,4.32-1.71,3.13-3.88,5.97-6.49,8.52-7.42,7.24-16.36,10.86-26.82,10.86s-19.47-3.62-26.82-10.86Z" fill="#383838"/><path d="m328.4,101.32c-11.97,0-22.28-4.18-30.66-12.43-8.49-8.21-12.79-18.34-12.79-30.11s4.3-21.83,12.79-30.11c8.38-8.18,18.7-12.33,30.66-12.33s22.19,4.14,30.64,12.31c3.48,3.46,6.27,7.31,8.34,11.49,1.15,2.33,1.02,5.04-.35,7.25-1.38,2.22-3.76,3.55-6.37,3.55h-1.51c-2.56,0-4.87-1.42-6.04-3.71-1.37-2.68-3.16-5.13-5.32-7.29-5.39-5.21-11.76-7.77-19.39-7.77s-14.04,2.56-19.44,7.82c-5.35,5.27-7.96,11.42-7.96,18.78s2.6,13.56,7.96,18.78c5.39,5.26,11.75,7.82,19.44,7.82s13.99-2.56,19.46-7.84c2.11-2.06,3.88-4.48,5.24-7.18,1.16-2.31,3.48-3.75,6.06-3.75,3,0,5.71,1.54,7.24,4.13,1.53,2.58,1.58,5.7.14,8.33-1.96,3.59-4.48,6.89-7.48,9.81-8.45,8.25-18.77,12.43-30.66,12.43Zm34.52-26.01s0,0,0,0c0,0,0,0,0,0Z" fill="#003954"/><path d="m450.32,95.42v-14.37c0-1.11-1.41-1.58-2.07-.69-1.21,1.63-2.54,3.16-4,4.59-7.42,7.24-16.36,10.86-26.82,10.86s-19.47-3.62-26.82-10.86c-7.42-7.18-11.13-15.9-11.13-26.17s3.71-18.93,11.13-26.17c7.35-7.18,16.29-10.76,26.82-10.76s19.4,3.59,26.82,10.76c7.35,7.24,11.03,15.97,11.03,26.17v35.02c0,1.11-.9,2.02-2.02,2.02h-2.55c-.22,0-.39-.18-.39-.39Zm-56.17-59.36c-6.41,6.32-9.62,13.89-9.62,22.72s3.2,16.46,9.62,22.72c6.41,6.26,14.17,9.38,23.28,9.38s16.8-3.13,23.28-9.38c6.41-6.25,9.61-13.83,9.61-22.72s-3.21-16.39-9.61-22.72c-6.48-6.25-14.24-9.38-23.28-9.38s-16.87,3.13-23.28,9.38Z" fill="#383838"/><path d="m453.27,101.32h-2.55c-3.25,0-5.89-2.64-5.89-5.89v-3.62c-7.79,6.32-16.99,9.51-27.39,9.51-11.97,0-22.3-4.19-30.68-12.45-8.46-8.18-12.77-18.32-12.77-30.09s4.3-21.83,12.79-30.11c8.38-8.18,18.7-12.33,30.66-12.33s22.19,4.14,30.64,12.31c8.45,8.32,12.71,18.44,12.71,30.13v35.02c0,4.14-3.37,7.52-7.52,7.52Zm-55.26-61.32c-5.36,5.29-7.97,11.44-7.97,18.79s2.6,13.56,7.96,18.78c5.39,5.26,11.75,7.82,19.44,7.82s13.99-2.56,19.46-7.84c5.33-5.21,7.93-11.35,7.93-18.76s-2.61-13.51-7.98-18.8c-5.42-5.23-11.79-7.8-19.41-7.8s-14.04,2.55-19.43,7.81Z" fill="#003954"/><path d="m477.33,53.35c0-8.36,3.24-15.7,9.72-22.02,6.48-6.32,14.3-9.48,23.48-9.48s16.9,3.16,23.38,9.48c6.48,6.32,9.72,13.93,9.72,22.81h0c0,1.36-1.11,2.47-2.47,2.47h-.02c-1.36,0-2.47-1.11-2.47-2.47h0c0-7.57-2.77-14.02-8.3-19.36-5.46-5.4-12.08-8.1-19.84-8.1s-14.47,2.7-19.94,8.1c-5.53,5.33-8.3,11.79-8.3,19.36v39.75c0,1.07-.86,1.93-1.93,1.93h-1.43c-.88,0-1.59-.71-1.59-1.59v-40.87Z" fill="#383838"/><path d="m480.36,101.32h-1.43c-3.91,0-7.09-3.18-7.09-7.09v-40.87c0-9.86,3.83-18.6,11.37-25.96,7.51-7.33,16.7-11.04,27.32-11.04s19.71,3.72,27.22,11.04c7.55,7.36,11.38,16.36,11.38,26.75,0,4.39-3.58,7.97-7.97,7.97s-7.99-3.58-7.99-7.97c0-6.07-2.16-11.1-6.62-15.4-4.48-4.43-9.71-6.56-16.02-6.56s-11.64,2.13-16.07,6.51c-4.5,4.34-6.66,9.37-6.66,15.44v39.75c0,4.1-3.33,7.43-7.43,7.43Z" fill="#003954"/><path d="m111.78,26.13v64.22c-4.59.37-4.54,4.25,0,4.84v5.59h-10.1c-3.32,0-6.02-2.69-6.02-6.02V22.29c0-3.58,2.9-6.48,6.48-6.48h9.64v5.58c-4.54.58-4.59,4.38,0,4.74Z" fill="#003954"/><path d="m175.75,58.24c0,10.27-3.71,19-11.13,26.17-7.36,7.25-16.3,10.87-26.82,10.87-.34,0-27.68,0-28.02-.01-.35,0-.69-.03-1-.08-4.54-.59-4.59-4.47,0-4.84.31-.03.64-.04,1-.03.34.02,27.68.02,28.02.02,9.11,0,16.86-3.13,23.27-9.38,6.41-6.26,9.62-13.83,9.62-22.72s-3.21-16.39-9.62-22.71c-6.41-6.26-14.16-9.39-23.27-9.39-.34,0-30.68,0-31.02.02-.35.01-.69,0-1-.03-4.59-.36-4.54-4.16,0-4.74.31-.05.65-.07,1-.08.34-.01,30.68-.01,31.02-.01,10.52,0,19.46,3.59,26.82,10.77,7.42,7.24,11.13,15.97,11.13,26.17Z" fill="#383838" stroke="#003954" stroke-miterlimit="10" strokeWidth="11"/><path d="m49.7,67.4c-2.66,0-5.31.03-7.97-.01-1.14-.02-2.28-.04-3.4-.45-3.99-1.44-6.22-5.06-5.7-9.38.45-3.76,3.74-6.87,7.69-7.26.35-.04.71-.04,1.06-.04,5.58,0,11.16,0,16.73,0,5.24,0,8.84,4.35,8.69,8.79-.16,5.01-4.36,8.2-7.81,8.25-3.1.05-6.2,0-9.29,0,0,.03,0,.06,0,.09Z" fill="#f3d938"/><path d="m5.5,58.88c0-10.27,3.71-19,11.13-26.17,7.36-7.25,16.3-10.87,26.82-10.87.34,0,27.68,0,28.02.01.35,0,5.69.03,6,.08,4.54.59,4.59,4.47,0,4.84-.31.03-5.64.04-6,.03-.34-.02-27.68-.02-28.02-.02-9.11,0-16.86,3.13-23.27,9.38-6.41,6.26-9.62,13.83-9.62,22.72,0,8.82,3.21,16.39,9.62,22.71,6.41,6.26,14.16,9.39,23.27,9.39.34,0,30.68,0,31.02-.02.35-.01,2.69,0,3,.03,4.59.36,4.54,4.16,0,4.74-.31.05-2.65.07-3,.08-.34.01-30.68.01-31.02.01-10.52,0-19.46-3.59-26.82-10.77-7.42-7.24-11.13-15.97-11.13-26.17Z" fill="none" stroke="#003954" stroke-miterlimit="10" strokeWidth="11"/><path d="m688.39,94.05c-5.02-3.59-8.81-7.78-11.37-12.56-1.33-2.49.03-5.58,2.73-6.4l.34-.1c2.09-.63,4.37.27,5.37,2.2,2.05,3.98,5.08,7.37,9.1,10.18,5.11,3.58,11.12,5.36,18.02,5.36,6.51,0,11.8-1.55,15.87-4.65s6.11-6.67,6.11-10.73c0-3.21-1.16-5.9-3.47-8.06-2.31-2.16-6.29-4.1-11.93-5.82l-21.04-6.54c-12.42-3.9-18.63-10.32-18.63-19.27,0-5.97,2.68-11.08,8.05-15.34,5.37-4.26,12.07-6.4,20.1-6.4s15.51,1.87,21.49,5.62c4.04,2.53,7.3,5.54,9.77,9.01,1.79,2.52.57,6.07-2.39,6.97h0c-1.94.59-4.01-.21-5.13-1.9-2.01-3.03-4.71-5.51-8.1-7.46-4.43-2.54-9.68-3.81-15.75-3.81-5.37,0-9.79,1.29-13.26,3.87-3.47,2.58-5.2,5.65-5.2,9.21,0,2.75,1.01,5.02,3.03,6.8,2.02,1.78,5.4,3.41,10.14,4.9l20.46,6.37c7.21,2.26,12.58,4.95,16.11,8.09,3.53,3.14,5.29,7.57,5.29,13.31,0,6.73-3,12.47-8.99,17.21-6,4.74-13.66,7.11-22.99,7.11s-17.04-2.39-23.72-7.17Z" fill="#003954"/><path d="m779.43,61.35l-16.52,17.52c-.06.06-.09.14-.09.22v20.08c0,1.13-.92,2.05-2.05,2.05h-1.35c-3.6,0-6.51-2.92-6.51-6.51V24.11c0-4.43,3.59-8.03,8.03-8.03h0c1.04,0,1.89.85,1.89,1.89v47.17c0,.29.35.43.55.22l43.91-46.86c1.45-1.55,3.47-2.42,5.59-2.42h.55c3.34,0,5.07,4,2.77,6.43l-29.76,31.54c-.11.12-.12.3-.01.42l32.96,39.38c2.44,2.92.37,7.36-3.44,7.36h0c-1.67,0-3.25-.74-4.32-2.01l-31.73-37.85c-.12-.15-.35-.15-.48-.01Z" fill="#003954"/><path d="m954.83,92.3h0c0,4.93-3.99,8.92-8.92,8.92h-44.51c-2.75,0-4.97-2.23-4.97-4.97V24.85c0-4.93,3.99-8.92,8.92-8.92h0c.56,0,1.01.45,1.01,1.01v75.36h48.46Z" fill="#003954"/><path d="m1019.9,92.3h0c0,4.93-3.99,8.92-8.92,8.92h-44.88c-2.54,0-4.6-2.06-4.6-4.6V25.86c0-5.49,4.45-9.94,9.94-9.94h0v76.37h48.46Z" fill="#003954"/><path d="m881.82,22.74c-3.49,12.09-9.09,33.82-53.79,19.71-2.68-.96-3.71,1.62-1.49,3.33,2.19,1.66,9.26,5.31,19.02,7.73,3.87.96,3.2,4.9-1.65,6.16-3.6.87-6.75,2.13-8.44,3.49-3.36,2.82-4.6,8.3-3.68,12.44.38,1.68,1.58,4.81,3.38,5.86.82.44,2.54.38,2.75-1.69.11-1.8.71-5.11,4.27-7.06,1.08-.59,2.27-.95,3.49-1,4.56-.16,8.78,3.65,3.15,12.67-1.93,2.8-6.89,9.33-15.32,14.12-2.66,1.35-1.92,2.86.45,2.4,20.31-4.32,49.33-29.51,52.38-81.67.15-2.74-1.05-2.91-1.93-2.87-1.3,0-2.1,4.59-2.6,6.37Z" fill="#f27a23"/><circle cx="857.26" cy="31.43" r="11.57" fill="#f27a23"/><path d="m882.26,9.15l-1.18,3.7c-.22.69.62,1.29,1.31.94l2.84-1.42c.34-.17.77-.12,1.06.13l3.01,2.59c.58.5,1.53.14,1.5-.58l-.18-3.76c-.02-.32.18-.6.49-.74l4.33-1.8c.73-.3.63-1.26-.15-1.49l-5.03-1.46c-.28-.08-.5-.28-.6-.53l-1.55-4.18c-.26-.7-1.34-.77-1.66-.11l-1.55,3.13c-.15.31-.52.49-.9.45l-4.12-.47c-.78-.09-1.27.69-.79,1.26l3.01,3.62c.17.2.23.47.15.71Z" fill="#f9ed32"/></svg>