<svg width="800" height="880" xmlns="http://www.w3.org/2000/svg">
 <g>
  <title>Layer 1</title>
  <g id="svg_1">
   <!-- Generator: Adobe Illustrator 29.1.0, SVG Export Plug-In . SVG Version: 2.1.0 Build 142)  -->
   <g id="svg_3">
    <path id="svg_2" class="st1" d="m583.37295,88.45656l-9.94,31.16c-1.85,5.79 5.22,10.86 11.07,7.94l23.93,-11.96c2.87,-1.43 6.51,-0.98 8.95,1.12l25.4,21.84c4.93,4.24 12.93,1.16 12.64,-4.86l-1.54,-31.72c-0.13,-2.66 1.5,-5.09 4.16,-6.2l36.45,-15.2c6.13,-2.56 5.32,-10.62 -1.25,-12.52l-42.38,-12.27c-2.37,-0.69 -4.25,-2.35 -5.03,-4.47l-13.05,-35.22c-2.19,-5.91 -11.28,-6.52 -14.03,-0.95l-13.04,26.42c-1.3,2.63 -4.37,4.16 -7.61,3.79l-34.68,-3.95c-6.53,-0.75 -10.68,5.81 -6.69,10.59l25.39,30.5c1.44,1.73 1.9,3.93 1.26,5.95l-0.01,0.01z" fill="#f9ed32"/>
    <path id="svg_4" class="st0" d="m581.62295,203.42656c-29.68,102.78 -77.3,287.57 -457.33,167.59c-22.75,-8.19 -31.54,13.76 -12.68,28.29c18.62,14.08 78.7,45.15 161.72,65.71c32.93,8.19 27.21,41.67 -14.07,52.41c-30.61,7.42 -57.36,18.09 -71.74,29.68c-28.6,23.96 -39.12,70.58 -31.31,105.75c3.25,14.3 13.41,40.86 28.72,49.78c6.96,3.71 21.57,3.25 23.42,-14.38c0.92,-15.28 6.05,-43.46 36.34,-60.03c9.14,-5 19.29,-8.1 29.71,-8.47c38.73,-1.38 74.69,31.06 26.75,107.76c-16.39,23.81 -58.59,79.31 -130.25,120.05c-22.65,11.52 -16.35,24.35 3.87,20.41c172.66,-36.76 419.37,-250.93 445.35,-694.34c1.28,-23.31 -8.97,-24.74 -16.39,-24.43c-11.02,0 -17.88,39.04 -22.11,54.19l0,0.03z" fill="#f27a23"/>
    <circle id="svg_5" class="st0" cx="372.77295" cy="277.31656" r="98.33" fill="#f27a23"/>
   </g>
  </g>
 </g>

</svg>